<?xml version="1.0" standalone="no"?>
<!DOCTYPE svg PUBLIC "-//W3C//DTD SVG 1.1//EN" "http://www.w3.org/Graphics/SVG/1.1/DTD/svg11.dtd" >
<svg>
<metadata>
Created by FontForge 20090622 at Tue Sep  6 08:18:21 2016
 By deploy user
Copyright &#194;&#169; 2015 by DearType, Veneta Rangelova. All rights reserved.
</metadata>
<defs>
<font id="LifehackBasic-Regular" horiz-adv-x="641" >
  <font-face 
    font-family="Lifehack Basic"
    font-weight="400"
    font-stretch="normal"
    units-per-em="1000"
    panose-1="0 0 5 0 0 0 0 0 0 0"
    ascent="800"
    descent="-200"
    x-height="430"
    cap-height="764"
    bbox="-69.2368 -270 1156 888"
    underline-thickness="50"
    underline-position="-50"
    unicode-range="U+0020-U+222B"
  />
<missing-glyph horiz-adv-x="500" 
d="M410 -250h-317v1000h317v-1000zM168 683v-33h65v-37h-66v-33h166v33h-66v37h66v33h-165zM167 554v-104h166v34h-66v70h-100zM233 484h-33v36h33v-36zM167 423v-33h66v-37h-66v-33h100v70h66v33h-166zM300 363v-66h-133v-34h166v100h-33zM233 241v-56h34v23h33v-47h-100
v80h-33v-113h166v113h-100zM167 68v-113h166v113h-166zM300 -12h-100v47h100v-47zM167 -68v-33h70l-70 -47v-33h166v33h-102l70 47h32v33h-166z" />
    <glyph glyph-name="f_t.liga" unicode="ft" horiz-adv-x="679" 
d="M550 446q-34 -6 -58 -9q-14 -136 -14 -220q0 -68 21.5 -99.5t63.5 -47.5q-5 -28 -26.5 -47t-43.5 -19q-97 0 -129 101q-15 50 -15 136q0 62 8 188q-11 -1 -33 -1.5t-34 -0.5l-77 -3q1 -52 5.5 -143.5t4.5 -122.5q0 -75 -27 -112.5t-93 -37.5q-19 0 -28 2q7 45 7 140
q0 36 -2 129t-1 143q-38 0 -60.5 14t-22.5 38q0 16 9 43q47 -4 79 -5q5 57 19 94q33 95 126 95q25 0 48 -19t28 -50q-36 -13 -60.5 -44t-29.5 -79q49 0 147 2q4 86 4 123q0 30 -3 63q3 0 17.5 2t22.5 2q98 0 98 -132q0 -13 -2 -53q14 0 50 1.5t57 2.5q6 -9 6 -19
q0 -44 -62 -55z" />
    <glyph glyph-name="l_l.liga" unicode="ll" horiz-adv-x="531" 
d="M268 108q3 -16 3 -30q0 -22 -9 -37t-22.5 -21.5t-24 -9t-19.5 -2.5q-93 0 -129 73.5t-36 254.5q0 247 -6 355q12 2 35 2q56 0 80 -29t23 -86q0 -4 -6.5 -145t-1.5 -194q7 -75 24 -105.5t54 -30.5q19 0 35 5zM512 108q3 -16 3 -30q0 -22 -9 -37t-22.5 -21.5t-24 -9
t-19.5 -2.5q-93 0 -129 73.5t-36 254.5q0 247 -6 355q12 2 35 2q56 0 80 -29t23 -86q0 -4 -6.5 -145t-1.5 -194q7 -75 24 -105.5t54 -30.5q19 0 35 5z" />
    <glyph glyph-name="t_t.liga" unicode="tt" horiz-adv-x="604" 
d="M542 448q-27 -5 -61 -8q-14 -161 -14 -223q0 -68 21.5 -99.5t63.5 -47.5q-5 -28 -29 -47t-46 -19q-97 0 -129 101q-15 50 -15 136q0 63 8 189l-81 -3q-8 0 -23 -0.5t-22 -1.5q-13 -143 -13 -208q0 -68 21.5 -99.5t63.5 -47.5q-5 -28 -29 -47t-46 -19q-97 0 -129 101
q-15 50 -15 136q0 74 7 181h-9q-36 0 -58 14t-22 39q0 16 9 43q37 -4 86 -6q4 84 4 122q0 30 -3 63q3 0 17.5 2t22.5 2q103 0 103 -132q0 -25 -3 -59l124 3q4 84 4 121q0 30 -3 63q3 0 17.5 2t22.5 2q103 0 103 -132q0 -12 -2 -50q17 0 53 1.5t54 2.5q5 -10 5 -19
q0 -45 -58 -56z" />
    <glyph glyph-name=".notdef" horiz-adv-x="500" 
d="M410 -250h-317v1000h317v-1000zM168 683v-33h65v-37h-66v-33h166v33h-66v37h66v33h-165zM167 554v-104h166v34h-66v70h-100zM233 484h-33v36h33v-36zM167 423v-33h66v-37h-66v-33h100v70h66v33h-166zM300 363v-66h-133v-34h166v100h-33zM233 241v-56h34v23h33v-47h-100
v80h-33v-113h166v113h-100zM167 68v-113h166v113h-166zM300 -12h-100v47h100v-47zM167 -68v-33h70l-70 -47v-33h166v33h-102l70 47h32v33h-166z" />
    <glyph glyph-name=".null" horiz-adv-x="0" 
 />
    <glyph glyph-name="nonmarkingreturn" horiz-adv-x="333" 
 />
    <glyph glyph-name="space" unicode=" " horiz-adv-x="187" 
 />
    <glyph glyph-name="exclam" unicode="!" horiz-adv-x="330" 
d="M171 222q23 0 38 16q17 46 32.5 232t15.5 248q-15 47 -79 47q-24 0 -40.5 -9t-24.5 -21t-12.5 -35.5t-5 -39t-0.5 -45.5q0 -100 17 -264q4 -41 6.5 -57t9 -37t16.5 -28t27 -7zM183 165q32 0 56.5 -14.5t24.5 -40.5q0 -31 -28.5 -65.5t-64.5 -34.5q-34 0 -55 30.5
t-21 59.5q0 30 26.5 47.5t61.5 17.5z" />
    <glyph glyph-name="quotedbl" unicode="&#x22;" horiz-adv-x="355" 
d="M156 676q0 -46 -18 -130q-8 -36 -15 -46t-28 -10q-20 0 -27.5 10t-13.5 45q-12 74 -12 131q0 31 11 41.5t47 10.5t46 -10t10 -42zM310 676q0 -46 -18 -130q-8 -36 -15 -46t-28 -10q-20 0 -27.5 10t-13.5 45q-12 74 -12 131q0 31 11 41.5t47 10.5t46 -10t10 -42z" />
    <glyph glyph-name="numbersign" unicode="#" horiz-adv-x="838" 
d="M636 537q138 -8 138 -44q0 -44 -58 -62q-66 0 -115 -1l-37 -111q152 -4 152 -44q0 -44 -58 -62q-74 0 -130 -1l-67 -200q-28 -26 -64 -26q-39 0 -39 37q0 17 7 45q13 51 42 142q-19 0 -56.5 -0.5t-55.5 -0.5l-66 -197q-28 -26 -64 -26q-39 0 -39 37q0 17 7 45
q18 68 41 139q-24 0 -47 -0.5t-36.5 -0.5h-14.5q-34 10 -37 43q-2 23 16.5 40t49.5 21q34 3 103 6l36 109q-27 0 -53 -0.5t-41 -0.5h-16q-34 10 -37 43q-2 23 16.5 40t49.5 21q61 5 118 7q45 131 63 166q24 46 77 46q32 0 47 -15q-8 -29 -64 -195q33 1 110 1q45 131 62 163
q24 46 77 46q32 0 47 -15q-8 -29 -64 -195zM441 320l36 109q-18 0 -54.5 -0.5t-54.5 -1.5l-37 -108q15 0 52 0.5t58 0.5z" />
    <glyph glyph-name="dollar" unicode="$" horiz-adv-x="572" 
d="M541 192q0 -86 -63 -134.5t-158 -60.5q-3 -52 -13 -74t-39 -22q-23 0 -37 22q9 34 10 72q-51 3 -96 16t-77 41t-32 65q0 35 32 56.5t64 12.5q34 -97 110 -117q0 140 1 221q-40 18 -72 34q-54 30 -93 78t-39 110q0 86 59 140t147 67v31q0 35 12 50t37 15q19 0 38 -13
q-5 -17 -8 -82q69 -7 120.5 -37t51.5 -76q0 -26 -26 -45t-69 -17q-16 83 -78 101q-1 -48 -1 -173v-56l58 -25q85 -37 123 -79.5t38 -120.5zM189 556q0 -56 55 -96q0 128 1 181q-56 -23 -56 -85zM323 72q73 22 73 88q0 31 -18 52t-54 40q0 -154 -1 -180z" />
    <glyph glyph-name="percent" unicode="%" horiz-adv-x="854" 
d="M762 705q-115 -154 -290.5 -369t-261.5 -297q-33 -33 -65 -33q-47 0 -63 69l211.5 243l217 250.5t134.5 148.5q38 38 63 38q29 0 54 -50zM210 750q63 0 109 -40t46 -104q0 -66 -45.5 -105t-109.5 -39q-65 0 -110 38.5t-45 105.5q0 66 45.5 105t109.5 39zM210 542
q23 0 35.5 21.5t12.5 48.5q0 70 -46 70q-24 0 -36.5 -19.5t-12.5 -50.5q0 -29 11.5 -49.5t35.5 -20.5zM643 292q63 0 109 -40t46 -104q0 -66 -45.5 -105t-109.5 -39q-65 0 -110 38.5t-45 105.5q0 66 45.5 105t109.5 39zM643 84q23 0 35.5 21.5t12.5 48.5q0 70 -46 70
q-24 0 -36.5 -19.5t-12.5 -50.5q0 -29 11.5 -49.5t35.5 -20.5z" />
    <glyph glyph-name="ampersand" unicode="&#x26;" horiz-adv-x="755" 
d="M565 167q70 -39 142 -57q-15 -107 -89 -107q-54 0 -140 57q-92 -83 -207 -83q-107 0 -174 67t-67 164q0 72 41 130.5t113 118.5q-14 54 -14 108q0 82 47.5 130.5t113.5 48.5q52 0 92 -35t40 -96q0 -40 -22 -79.5t-47.5 -65t-65.5 -61.5q-9 -8 -14 -12q64 -105 184 -187
q51 74 68 148q31 0 44 -11.5t13 -35.5q0 -14 -15.5 -56t-42.5 -86zM256 591q0 -31 7 -71q50 40 75.5 71.5t25.5 63.5q0 14 -9 23t-25 9q-26 0 -49.5 -25.5t-24.5 -70.5zM288 68q57 0 120 46q-103 91 -167 204q-57 -72 -57 -125q0 -58 29.5 -91.5t74.5 -33.5z" />
    <glyph glyph-name="quotesingle" unicode="'" horiz-adv-x="200" 
d="M162 676q0 -46 -18 -130q-8 -36 -15 -46t-28 -10q-20 0 -27.5 10t-13.5 45q-12 74 -12 131q0 31 11 41.5t47 10.5t46 -10t10 -42z" />
    <glyph glyph-name="parenleft" unicode="(" horiz-adv-x="375" 
d="M267 793q23 0 36 -16.5t17 -34.5q-3 -6 -18.5 -34t-21 -39.5t-18 -40.5t-18.5 -52t-14 -56.5t-12.5 -72.5t-5.5 -83q-2 -51 4 -101.5t14 -85t23.5 -75.5t23.5 -58.5t25 -49.5l16 -31q-6 -14 -23.5 -26t-36.5 -12q-53 0 -102 69.5t-76.5 169.5t-27.5 194q0 92 32 194
t83 171.5t100 69.5z" />
    <glyph glyph-name="parenright" unicode=")" horiz-adv-x="317" 
d="M277 358q0 -94 -27.5 -194t-76.5 -169.5t-102 -69.5q-19 0 -36.5 12t-23.5 26l17 31q16 32 24 49.5t23.5 58.5t23.5 75.5t14 85t4 101.5q-1 44 -5.5 83t-12.5 72.5t-14 56.5t-18.5 52t-18 40.5t-21 39.5t-18.5 34q4 18 17 34.5t36 16.5q49 0 100 -69.5t83 -171.5t32 -194
z" />
    <glyph glyph-name="asterisk" unicode="*" horiz-adv-x="550" 
d="M488 561q0 -39 -109 -53q73 -88 83 -103q0 -25 -15.5 -38.5t-36.5 -13.5q-32 0 -69 37q-33 31 -70 81q-82 -116 -121 -116q-17 0 -32.5 15t-18.5 48l60 80h-22q-54 0 -78 9.5t-24 33.5q0 23 29 54q28 0 118 4q-52 80 -69 101q-3 21 9.5 34t26.5 13q23 0 45 -22
q1 0 73 -84l73 98q12 19 45 12.5t38 -35.5l-63 -106q100 6 102 6q26 -32 26 -55z" />
    <glyph glyph-name="plus" unicode="+" horiz-adv-x="585" 
d="M526 336q0 -23 -19 -45q-60 -7 -158 -8q-1 -103 -14 -142.5t-56 -39.5q-17 0 -34 7q-6 64 -9 175q-98 2 -135 15t-37 55q0 17 7 34q62 6 164 9q0 43 1 67.5t6 53.5t18.5 42.5t35.5 13.5t45 -20q7 -60 8 -156q44 0 67.5 -1t53 -6t43 -18.5t13.5 -35.5z" />
    <glyph glyph-name="comma" unicode="," horiz-adv-x="312" 
d="M236 78q0 -46 -42.5 -106.5t-80.5 -60.5q-24 0 -35 33q18 19 26 28.5t16 24t11 29.5q-50 23 -50 75q0 36 23 55.5t57 19.5q33 0 54 -27.5t21 -70.5z" />
    <glyph glyph-name="hyphen" unicode="-" horiz-adv-x="610" 
d="M326 225q117 0 176 8q17 23 17 40q0 14 -7 24.5t-23 16.5t-30.5 9.5t-41.5 5t-42.5 2t-46.5 0.5q-139 -1 -210 -9q-7 -18 -7 -30q0 -45 43 -58q37 -9 172 -9z" />
    <glyph glyph-name="period" unicode="." horiz-adv-x="299" 
d="M150 167q39 0 61.5 -15.5t22.5 -37.5q0 -34 -28.5 -68t-66.5 -34q-31 0 -52.5 30.5t-21.5 57.5q0 33 27.5 50t57.5 17z" />
    <glyph glyph-name="slash" unicode="/" horiz-adv-x="628" 
d="M493 724q-74 -170 -188 -400t-175 -318q-23 -36 -52 -36q-42 0 -72 75l141.5 262.5l145 270t90.5 159.5q27 41 50 41q26 0 60 -54z" />
    <glyph glyph-name="zero" unicode="0" horiz-adv-x="590" 
d="M46 374q0 163 83 266t194 103q51 0 94 -23.5t70.5 -60.5t47 -84t27.5 -91t8 -84q0 -170 -75.5 -286.5t-201.5 -116.5q-107 0 -177 105.5t-70 271.5zM317 674q-55 0 -89.5 -88.5t-34.5 -182.5q0 -149 29 -241.5t84 -92.5q33 0 59.5 32.5t41 84.5t22 108.5t7.5 112.5
q0 121 -37 194t-82 73z" />
    <glyph glyph-name="one" unicode="1" horiz-adv-x="469" 
d="M409 626q0 37 -14 57q-37 53 -63 70q-7 5 -19 5q-15 0 -29 -7q-62 -27 -235 -333q5 -23 36 -23q25 0 41 23q2 2 70 98t79 109l-1 -24q-1 -12 -3 -57.5t-5.5 -109.5t-6.5 -130q-7 -149 -7 -309q20 -10 41 -10q44 0 74 21t35 65q1 4 1 33z" />
    <glyph glyph-name="two" unicode="2" horiz-adv-x="577" 
d="M529 158q21 -37 21 -61q0 -104 -115 -104q-43 0 -111.5 24.5t-94.5 24.5q-13 0 -23 -1.5t-20 -6t-13.5 -6.5t-14.5 -10.5t-13 -9.5q-13 -12 -33 -12q-22 0 -41 21t-18 45l3 1q47 25 128.5 111t123.5 176q1 3 10.5 23l14.5 31t14 33t13.5 38.5t8.5 37.5t4 39q0 26 -2 41.5
t-9 34t-23.5 27.5t-43.5 9q-17 0 -31.5 -5.5t-25 -12.5t-21 -22.5t-15.5 -24.5t-13 -30.5t-10 -27.5t-9 -29q-11 -4 -31 -4q-24 0 -41 10.5t-17 33.5q0 85 75.5 137t165.5 52q85 0 145.5 -51t61.5 -145q0 -29 -10 -69.5t-34.5 -96t-76 -121.5t-123.5 -126q111 -9 112 -9
q40 0 73 8.5t46 17.5z" />
    <glyph glyph-name="three" unicode="3" horiz-adv-x="617" 
d="M98 671l8.5 8.5t24 19t38.5 23.5t51 18.5t62 8.5h14q72 -4 109 -33.5t37 -78.5q0 -120 -146 -184q27 5 56 5q97 0 170 -56.5t73 -158.5q0 -62 -28.5 -112.5t-74 -80t-97.5 -45t-104 -15.5q-101 0 -180 45t-79 113q0 14 15 34.5t35 28.5q3 -1 20.5 -24t40 -49.5t63 -48.5
t85.5 -22q22 0 48 10t51.5 29.5t42.5 55t17 79.5q0 70 -53.5 107.5t-119.5 37.5q-19 0 -37 -3t-27 -3q-20 0 -36.5 14t-16.5 32q0 11 8 29q20 8 28 12q115 68 115 169q0 19 -12.5 32t-30.5 13q-14 0 -29.5 -9t-59.5 -42q-17 -12 -33 -12q-21 0 -34.5 15.5t-13.5 37.5z" />
    <glyph glyph-name="four" unicode="4" horiz-adv-x="619" 
d="M564 610q3 -44 3 -71q0 -159 -7 -322q-13 -198 -16 -221q-21 -11 -57 -11q-26 0 -43 15.5t-17 37.5v204q-157 -5 -240 -5q-87 0 -100 6q-43 20 -43 49q0 10 5 23q3 6 42 103.5l80.5 193t58.5 114.5q21 25 63 25q13 0 24 -2.5t16 -4.5l5 -3q-7 -44 -40 -149.5t-62 -189.5
l-29 -83l220 -8l1 342q27 13 51 13q31 0 52.5 -14t26.5 -28z" />
    <glyph glyph-name="five" unicode="5" horiz-adv-x="591" 
d="M123 696q4 19 80 31.5t164 12.5q76 0 119 -12q26 -8 26 -32q0 -25 -15 -43q-3 -1 -123.5 0t-131.5 2l-12 -151q0 -15 10 -15q2 0 32 5t61 5q99 0 161 -73.5t62 -165.5q0 -62 -29.5 -123t-94 -105.5t-149.5 -44.5q-109 0 -175 44.5t-66 90.5q0 20 16.5 38.5t36.5 23.5
q3 -3 24.5 -29.5t31.5 -35.5t31.5 -26t44.5 -23.5t50 -6.5q63 0 98 58.5t35 131.5q0 74 -37.5 125.5t-106.5 51.5q-13 0 -39 -11t-38 -11q-18 0 -34 5.5t-25 10.5l-8 6z" />
    <glyph glyph-name="six" unicode="6" horiz-adv-x="601" 
d="M387 446q75 0 134 -57.5t59 -144.5q0 -105 -74 -178.5t-171 -73.5q-137 0 -211.5 78.5t-74.5 224.5q0 92 31 173t81.5 137t114.5 91.5t131 42.5q20 2 31 2q50 0 50 -39q0 -12 -2 -20q-53 -7 -82 -18q-152 -56 -206 -254q-10 -36 -12 -76q84 112 201 112zM320 61
q61 0 99.5 54.5t38.5 121.5q0 40 -31 85.5t-80 45.5t-85 -37.5t-72 -101.5q11 -75 44 -121.5t86 -46.5z" />
    <glyph glyph-name="seven" unicode="7" horiz-adv-x="558" 
d="M45 752q208 -67 372 -67l52 3q37 52 83 52q34 0 34 -24l-4 -36q-5 -10 -18.5 -20t-23.5 -15l-11 -5q-38 -55 -117 -243t-117 -334q-7 -29 -30.5 -47t-49.5 -18q-35 0 -75 18l6 48q20 108 83 245t115 219l53 83q-40 -13 -91 -13q-39 0 -85 7t-91 20t-74.5 36.5t-29.5 52.5
q0 10 5 19.5t9 14.5z" />
    <glyph glyph-name="eight" unicode="8" horiz-adv-x="572" 
d="M381 410q40 -27 64 -45t52.5 -46.5t42 -61t13.5 -70.5q0 -81 -63.5 -143.5t-186.5 -62.5q-129 0 -194 56t-65 136q0 87 102 171q9 8 27 21.5t26 20.5q-102 78 -102 168q0 47 17.5 84t41.5 56.5t53 31.5t48.5 15.5t32.5 3.5h6q3 1 11 1q81 0 136 -43t55 -114
q-5 -88 -98 -164l-5 -4zM219 592q0 -65 82 -128q90 76 90 150q0 33 -20.5 55.5t-62.5 22.5h-9q-19 -3 -34 -11q-46 -24 -46 -89zM297 50q46 0 81.5 36.5t35.5 96.5q0 23 -10 43t-33.5 40t-41 32.5t-53.5 35.5q-90 -74 -90 -167q0 -55 33 -86t78 -31z" />
    <glyph glyph-name="nine" unicode="9" horiz-adv-x="599" 
d="M290 741q137 0 211.5 -78.5t74.5 -224.5q0 -92 -31 -173t-81.5 -137t-114.5 -91.5t-131 -42.5q-20 -2 -31 -2q-50 0 -50 39q0 12 2 20q53 7 82 18q152 56 206 254q9 33 12 71q-81 -107 -201 -107q-75 0 -134 57.5t-59 144.5q0 105 74 178.5t171 73.5zM278 367
q48 0 89.5 40t67.5 95q-10 76 -43 123t-87 47q-61 0 -99.5 -54.5t-38.5 -121.5q0 -40 31 -84.5t80 -44.5z" />
    <glyph glyph-name="colon" unicode=":" horiz-adv-x="298" 
d="M150 465q39 0 61.5 -15.5t22.5 -37.5q0 -34 -28.5 -68t-66.5 -34q-31 0 -52.5 30.5t-21.5 57.5q0 33 27.5 50t57.5 17zM150 205q39 0 61.5 -15.5t22.5 -37.5q0 -34 -28.5 -68t-66.5 -34q-31 0 -52.5 30.5t-21.5 57.5q0 33 27.5 50t57.5 17z" />
    <glyph glyph-name="semicolon" unicode=";" horiz-adv-x="299" 
d="M150 464q39 0 61.5 -15.5t22.5 -37.5q0 -34 -28.5 -68t-66.5 -34q-31 0 -52.5 30.5t-21.5 57.5q0 33 27.5 50t57.5 17zM227 94q0 -46 -42.5 -106.5t-80.5 -60.5q-24 0 -35 33q18 19 26 28.5t16 24t11 29.5q-50 23 -50 75q0 36 23 55.5t57 19.5q33 0 54 -27.5t21 -70.5z
" />
    <glyph glyph-name="less" unicode="&#x3c;" horiz-adv-x="477" 
d="M427 70q0 -28 -34 -46q-56 20 -142.5 70t-158 106.5t-71.5 86.5q0 44 117.5 133t247.5 161q50 -13 50 -65q0 -21 -15.5 -44t-48 -48.5t-58.5 -43l-72.5 -46.5l-63.5 -40l81 -55.5t76.5 -57.5t68 -63t23.5 -48z" />
    <glyph glyph-name="equal" unicode="=" horiz-adv-x="560" 
d="M300 350q118 0 188 7q19 19 19 39q0 10 -3.5 18t-11.5 13.5t-16 9.5t-22.5 6.5t-25.5 4t-30 1.5h-30.5h-33h-32.5q-148 -1 -226 -8q-7 -13 -7 -30q0 -40 46 -52q37 -9 185 -9zM300 181q118 0 188 7q19 19 19 39q0 10 -3.5 18t-11.5 13.5t-16 9.5t-22.5 6.5t-25.5 4
t-30 1.5h-30.5h-33h-32.5q-148 -1 -226 -8q-7 -13 -7 -30q0 -40 46 -52q37 -9 185 -9z" />
    <glyph glyph-name="greater" unicode="&#x3e;" horiz-adv-x="497" 
d="M52 554q0 28 34 46q56 -20 142.5 -70t158 -106.5t71.5 -86.5q0 -44 -117.5 -133t-247.5 -161q-50 13 -50 65q0 21 15.5 44t48 48.5t58.5 43l72.5 46.5l63.5 40l-81 55.5t-76.5 57.5t-68 63t-23.5 48z" />
    <glyph glyph-name="question" unicode="?" horiz-adv-x="468" 
d="M426 599q0 -44 -19.5 -82t-43.5 -61l-53.5 -53t-42.5 -56q-25 -48 -12 -105q-28 -19 -53 -19q-30 0 -45 21.5t-15 55.5q0 44 17.5 80.5t42 62.5l49.5 51t42.5 57.5t17.5 70.5q0 29 -18 51.5t-49 22.5q-38 0 -58 -24.5t-18.5 -57t11.5 -63.5q-12 -12 -32 -21t-35 -9
q-27 0 -45 17.5t-18 50.5q3 85 57.5 129t130.5 44q74 0 131.5 -47.5t57.5 -115.5zM208 165q39 0 61.5 -15.5t22.5 -37.5q0 -34 -28.5 -68t-66.5 -34q-31 0 -52.5 30.5t-21.5 57.5q0 33 27.5 50t57.5 17z" />
    <glyph glyph-name="at" unicode="@" horiz-adv-x="810" 
d="M694 181q9 -5 12.5 -7.5t8 -9.5t4.5 -17q0 -15 -24.5 -40.5t-63 -51t-96 -44t-115.5 -18.5q-157 0 -247 84t-90 198q0 56 21.5 108t62 94t105.5 67t145 25q74 0 138.5 -26.5t108.5 -83t44 -133.5q0 -67 -43 -107t-88 -40q-35 0 -63 33.5t-28 67.5q-66 -106 -142 -106
q-35 0 -58.5 22.5t-23.5 65.5q0 57 54 108t121 51q37 0 61.5 -19t33.5 -43q0 -54 5.5 -82.5t24.5 -28.5q14 0 29.5 25t15.5 49q0 90 -56.5 141.5t-131.5 51.5q-108 0 -168 -66.5t-60 -157.5q0 -92 61 -159t170 -67q147 0 272 116zM351 231q21 0 50 32t60 96q-6 13 -22 13
q-34 0 -70 -42.5t-36 -75.5q0 -23 18 -23z" />
    <glyph glyph-name="A" unicode="A" horiz-adv-x="565" 
d="M547 356q6 -5 6 -14q0 -7 -5.5 -13t-13.5 -7q-2 -1 -32 -6q16 -114 16 -208q0 -23 -1 -35.5t-5.5 -31.5t-16 -28t-30.5 -9q-17 0 -43.5 6t-37.5 17q13 98 13 131q0 81 -4 145q-32 -4 -92.5 -10.5l-78.5 -8.5q-23 -160 -26 -176q-21 -124 -95 -124q-57 0 -74 44
q34 102 38 123q13 69 21 118l-27 -2q-27 0 -27 32q0 5 2 15l61 12q29 180 88 310q31 69 61.5 94.5t72.5 25.5q40 0 68.5 -28.5t56.5 -115t52 -241.5q38 -2 53 -15zM232 350q87 13 157 19q-4 42 -7 62q-32 234 -57 234q-26 0 -49 -76q-17 -59 -44 -239z" />
    <glyph glyph-name="B" unicode="B" horiz-adv-x="663" 
d="M437 461q77 0 142 -53t65 -147q0 -128 -83 -205t-214 -77q-23 0 -51 4.5t-56 20.5t-28 40q0 30 25 53q57 -41 108 -41q59 0 109.5 55t50.5 126q0 66 -40.5 112t-100.5 46q-21 0 -54 -9t-47 -9q-37 0 -37 35q0 19 9 28.5t39 9.5h13l7 1q12 0 27.5 32.5t15.5 69.5
q0 40 -23.5 69t-56.5 29q-44 0 -79 -23q-2 -58 -2 -98q0 -321 -14 -441q-4 -30 -8 -45.5t-18 -28.5t-39 -13q-29 0 -55 27q-4 286 -4 490q0 178 21 202q37 43 71 43q41 0 53 -18q0 -1 -0.5 -9.5t-1.5 -23.5t-1 -30q73 42 134 42q55 0 98 -39.5t44 -95.5q0 -33 -12.5 -64
t-23.5 -45t-20 -22q22 2 37 2z" />
    <glyph glyph-name="C" unicode="C" horiz-adv-x="619" 
d="M556 595q-23 -19 -65 -19q-31 0 -47 28l-6 12q-5 13 -11 23t-19 19t-30 9q-44 0 -78 -25.5t-52.5 -61.5t-30.5 -82.5t-15.5 -80.5t-3.5 -63q0 -126 51 -199.5t119 -73.5q23 0 46.5 6.5t40 14.5t35.5 22.5t28 22t23 22l15 15.5q34 -11 34 -44q0 -28 -23 -57
q-80 -100 -223 -100q-76 0 -137 31t-97.5 81.5t-56 111t-19.5 124.5q0 70 20 138.5t57.5 128t100.5 96.5t141 37q52 0 92 -14t60 -34t32.5 -40t15.5 -34z" />
    <glyph glyph-name="D" unicode="D" horiz-adv-x="647" 
d="M57 701q24 -163 24 -451q0 -56 -2 -114q-1 -38 -1 -76q0 -20 16 -36.5t32 -23.5l15 -6q28 -2 44 -2q58 0 115.5 11.5t117 40.5t104.5 73t73.5 114t28.5 158q0 170 -107.5 262.5t-282.5 92.5q-44 0 -100.5 -13t-76.5 -30zM223 407q0 189 -14 256q29 8 52 8q88 0 147.5 -81
t59.5 -189q0 -80 -19.5 -141t-47 -94.5t-65 -54.5t-66.5 -27t-57 -6q10 148 10 329z" />
    <glyph glyph-name="E" unicode="E" horiz-adv-x="619" 
d="M542 212q25 1 42.5 -17t17.5 -43q0 -53 -49 -92.5t-108 -55t-112 -15.5q-139 0 -223.5 69.5t-84.5 165.5q0 84 51 146t121 80q-78 49 -78 128q0 70 59.5 125t159.5 55q89 0 134 -43.5t45 -92.5q-24 -18 -49 -18q-48 0 -57 40q-6 26 -25.5 42.5t-43.5 16.5
q-41 -3 -61 -37.5t-20 -78.5q0 -25 6 -43.5t20 -29.5t22.5 -16t28 -10.5t21.5 -6.5q27 -9 27 -33q0 -39 -60 -47l-26 -4q-59 -15 -88.5 -61.5t-29.5 -93.5q0 -72 46 -126.5t129 -54.5q57 0 106.5 45.5t78.5 105.5z" />
    <glyph glyph-name="F" unicode="F" horiz-adv-x="735" 
d="M597 766q72 0 104.5 -13.5t32.5 -45.5q0 -45 -41 -66q-80 16 -123 16q-117 0 -214 -21q-2 -64 -2 -106q0 -73 -1 -111q65 9 192 11q3 -15 3 -30q0 -32 -35 -49q-14 -7 -36.5 -10t-60 -6t-65.5 -7q-5 -196 -19 -289q-4 -27 -20.5 -40.5t-35.5 -13.5q-30 0 -55 23
q-7 307 -7 511q0 46 1 68h-1q-28 -14 -45 -27t-24 -26t-9 -21.5t-2 -21.5l3 -40q0 -7 -16 -15.5t-32 -8.5q-26 0 -45 15t-19 45q0 82 164 171l30 16q5 41 14 57q27 39 82 39q27 0 47 -13v-4q0 -4 -0.5 -10t-0.5 -13q116 36 236 36z" />
    <glyph glyph-name="G" unicode="G" horiz-adv-x="710" 
d="M704 333q0 -19 -11 -43q-19 -9 -74 -14v-1q5 -121 -78.5 -205t-204.5 -84q-80 0 -140.5 33t-94 88t-49.5 117.5t-16 131.5q0 93 34.5 178.5t108.5 145.5t173 60q52 0 95.5 -14.5t68 -35.5t42 -42t24.5 -36l6 -14q-46 -33 -72 -33q-34 0 -54.5 17t-28 37t-28 37t-55.5 17
q-44 0 -77.5 -32t-50.5 -82.5t-25.5 -101.5t-8.5 -99q0 -139 45.5 -215.5t124.5 -76.5q52 0 98 66.5t46 125.5v9q-9 -1 -28 -1q-74 0 -74 54q0 14 4 28q4 7 104 16.5t144 9.5q21 0 36.5 -10t15.5 -31z" />
    <glyph glyph-name="H" unicode="H" horiz-adv-x="645" 
d="M587 516v-25q0 -384 -2 -435q-3 -74 -59 -74q-48 0 -67 12q-4 17 -8 324q-78 -6 -141 -6q-74 0 -104 1q0 -157 -4 -257q-2 -35 -18 -54.5t-45 -19.5q-42 0 -61 12q-3 10 -7 246t-4 384q0 50 26 80t71 30q22 0 43 -12q2 -10 2 -34.5t-1 -76.5t-1 -95v-25v-94q17 -1 57 -1
q134 0 186 1q-2 184 -2 244q0 50 26.5 80t73.5 30q17 0 38 -12q2 -10 2.5 -37.5t-0.5 -87t-1 -98.5zM520 401z" />
    <glyph glyph-name="I" unicode="I" horiz-adv-x="370" 
d="M250 82q50 0 71.5 -10.5t21.5 -37.5q0 -26 -11 -45l-246 -3q-32 0 -52 15t-20 39q0 16 10 35q6 2 95 5q-6 187 -8 555h-25q-32 0 -52 15t-20 39q0 16 10 35q6 2 84.5 4.5t141.5 2.5q50 0 71.5 -10.5t21.5 -37.5q0 -26 -11 -45l-89 -1q-2 -64 -2 -121v-25q0 -241 -4 -409
h13z" />
    <glyph glyph-name="J" unicode="J" horiz-adv-x="530" 
d="M138 268q-19 11 -42 11q-42 0 -61 -30t-19 -76q0 -72 58.5 -124.5t151.5 -52.5q56 0 101 22t74 62.5t49.5 89t30.5 109.5t14.5 115t4.5 115q0 101 -20 181q-9 34 -36 44t-71 10q-115 0 -285 -47q-1 0 -25 -7l-24 -8q-2 -14 -2 -20q0 -37 19.5 -58.5t48.5 -21.5
q38 0 116 34t105 34q17 0 26 -45.5t9 -99.5q0 -29 -2.5 -72t-11 -109t-22.5 -119.5t-40 -92.5t-60 -39q-41 0 -67 37t-26 99q0 27 6 59z" />
    <glyph glyph-name="K" unicode="K" horiz-adv-x="606" 
d="M585 124q3 -15 3 -28q0 -87 -107 -87q-34 0 -66.5 18.5t-56 43.5t-52.5 72.5t-46 82l-46 96.5l-13 -7l-34 -13q-2 -53 -6 -126.5t-5 -87.5q-4 -84 -57 -84q-31 0 -50 12q-3 10 -7 238.5t-4 375.5q0 50 23.5 80t68.5 30q22 0 43 -12q2 -10 2 -30.5t-1 -68.5t-1 -91v-25
q0 -41 -2 -119q46 27 91 67t88 107.5t51 137.5q34 18 71 18q31 0 46.5 -17t15.5 -56q0 -64 -53.5 -130.5t-177.5 -145.5q45 -83 90 -135q80 -95 192 -116z" />
    <glyph glyph-name="L" unicode="L" horiz-adv-x="556" 
d="M181 734q8 -78 8 -177q0 -225 -25 -440q40 23 78 23q24 0 72 -5t71 -5q40 0 73 9t46 17l13 9q21 -37 21 -68q0 -104 -115 -104q-43 0 -111.5 24.5t-94.5 24.5q-13 0 -23 -1.5t-20 -6t-13.5 -6.5t-14.5 -10.5t-13 -9.5q-13 -12 -33 -12q-22 0 -41.5 21.5t-17.5 45.5
q1 13 7.5 69t10.5 100.5t4 76.5q0 74 -7 183t-7 143q0 51 28.5 76t76.5 25q9 0 27 -2z" />
    <glyph glyph-name="M" unicode="M" horiz-adv-x="778" 
d="M112 -6q30 0 50.5 23.5t30.5 68t14 92.5t4 111q0 51 -5 218q0 26 5 26q2 0 5 -1l2 -2q7 0 24 -54.5l38.5 -126t34.5 -98.5q26 -52 83 -52q30 0 53 17q7 5 16.5 20t23.5 43.5l23 48l28.5 62t25.5 56.5q5 10 9 19.5l6.5 15.5l4.5 11t3.5 8l2.5 5t2 2.5t3 0.5q5 0 5 -16
q0 -61 -3.5 -165.5t-3.5 -171.5q0 -87 15.5 -123t64.5 -36q22 0 41 9.5t26 25.5q-14 29 -18 83t-4 167q0 271 -31 335q-27 57 -65 57q-23 0 -48 -20t-46 -51.5t-41.5 -70t-36 -76.5l-27.5 -70l-19 -51l-6 -20q-42 124 -80 253q-31 107 -61.5 142t-65.5 35q-45 0 -62 -29
q-53 -87 -53 -295q0 -101 -11 -229.5t-36 -169.5q9 -11 33.5 -19t45.5 -8z" />
    <glyph glyph-name="N" unicode="N" horiz-adv-x="655" 
d="M57 633q1 35 17 53.5t42 18.5q28 0 47.5 -10.5t38 -38.5t33 -58l43.5 -88t60 -110q14 -24 51.5 -94.5l65.5 -122t28 -46.5q2 6 2 91q0 58 -5 193t-5 181q0 128 88 128q12 0 22 -2.5t15 -5.5l4 -2q9 -96 9 -260q0 -128 -10 -259.5t-34 -171.5q-13 -24 -47 -24
q-19 0 -33.5 3.5t-24 7.5t-20.5 15.5t-16.5 18t-18.5 25.5l-20 29q-12 17 -106 192t-100 181q-6 0 -6 -184q0 -167 27 -279q-20 -20 -64 -20q-22 0 -38 8t-25.5 25.5t-15 33.5t-8 45t-3 46.5t-0.5 51.5q0 53 4 172.5t4 185.5q0 48 -1 71z" />
    <glyph glyph-name="O" unicode="O" 
d="M265 746q25 0 27 -26q-8 -7 -17.5 -16.5t-29 -39t-34.5 -64t-26.5 -92.5t-11.5 -123q0 -147 46 -231.5t98 -84.5q112 10 148 216q9 52 9 120q0 107 -33 161.5t-71 54.5q-50 0 -76 -54q-15 6 -29 20.5t-14 34.5q0 41 41.5 63.5t82.5 22.5q62 0 110 -29t75.5 -77.5
t41.5 -105t14 -117.5q0 -63 -19 -128.5t-54 -123t-94 -94.5t-131 -37q-64 0 -115.5 23t-83.5 60.5t-53.5 88.5t-30.5 103.5t-9 109.5q0 71 19 133t47.5 102.5t62 70.5t62 44t48.5 15z" />
    <glyph glyph-name="P" unicode="P" horiz-adv-x="669" 
d="M326 726q87 0 160.5 -25t124 -82.5t50.5 -138.5q0 -27 -9 -57.5t-32.5 -66t-59 -63.5t-95 -46.5t-133.5 -18.5q-19 0 -43 2q-11 -191 -37 -252q-30 -12 -52 -12q-38 0 -41 43v8q0 10 -0.5 98t-0.5 160q0 205 -12 334q-50 -19 -75 -39q-16 -13 -33 -30q-31 5 -31 35
q0 19 25 41q41 41 104 70q-1 8 -2.5 17.5t-3.5 20.5t-3 18q41 31 83 31q12 0 23 -4q20 -9 33 -48q20 3 60 5zM308 299q90 0 142.5 44.5t52.5 129.5q0 84 -46 128t-133 44q-12 0 -42 -2q12 -86 12 -245q0 -25 -2 -99h16z" />
    <glyph glyph-name="Q" unicode="Q" horiz-adv-x="668" 
d="M636 -25q17 -10 17 -29q0 -20 -18 -47q-6 -8 -17 -20.5t-44 -33t-66 -20.5q-68 0 -152 75q-33 29 -66 29q-23 0 -45 -15q-26 -28 -52 -28q-30 0 -40 24q3 7 10 19t30.5 37.5t50.5 39.5q-57 16 -99.5 54.5t-66.5 91.5t-35 110t-11 119q0 71 19 133t47.5 102.5t62 70.5
t62 44t48.5 15q25 0 27 -26q-8 -7 -17.5 -16.5t-29 -39t-34.5 -64t-26.5 -92.5t-11.5 -123q0 -147 46 -235t98 -88q19 2 37.5 11.5t40 32t40.5 68.5t30 111q9 52 9 120q0 107 -33 161.5t-71 54.5q-50 0 -76 -54q-15 6 -29 20.5t-14 34.5q0 41 41.5 63.5t82.5 22.5
q62 0 110 -29t75.5 -77.5t41.5 -105t14 -117.5q0 -120 -62.5 -233t-172.5 -142q23 -12 68.5 -49t69.5 -37q29 0 53.5 13.5t39.5 28t18 15.5z" />
    <glyph glyph-name="R" unicode="R" horiz-adv-x="603" 
d="M332 335q114 -57 180 -133.5t66 -141.5q0 -72 -59 -72q-37 0 -70 18q-6 54 -32.5 106.5t-63.5 91.5t-71.5 66.5t-65.5 44.5q-9 -215 -48 -322q-16 -6 -35 -6q-47 0 -48 46v17q0 12 2 87t2 133q0 185 -19 337q-10 -8 -13 -11q-12 -11 -19.5 -20t-13 -18.5t-6.5 -10.5
q-33 7 -33 37q0 22 18 40q29 29 58 46q-5 35 -10 55q37 27 81 27q13 0 30 -5q14 -4 25 -25q35 9 73 12h17q73 0 135 -21t103.5 -66.5t41.5 -108.5v-5q0 -6 -1.5 -15t-12 -35.5t-28 -49.5t-55.5 -48t-88 -40q-10 -3 -40 -10zM259 660q-28 0 -51 -4q12 -57 12 -145
q0 -82 -1 -132h6q84 0 138.5 42t54.5 114q-1 61 -44.5 93t-114.5 32z" />
    <glyph glyph-name="S" unicode="S" horiz-adv-x="593" 
d="M97 119q-1 3 -1 10q0 19 14.5 30t36.5 11q24 0 45 -10q6 -15 20 -36.5t43 -45t59 -23.5q43 0 68 30.5t25 73.5q0 36 -17 64q-11 18 -39 39t-53 35.5t-72.5 39t-68.5 36.5q-115 64 -115 179q0 77 67.5 140t185.5 63q68 0 121 -17.5t81.5 -44.5t43 -53.5t14.5 -49.5
q0 -16 -12 -27t-32 -11q-25 0 -51 7q-66 121 -155 121q-28 0 -54.5 -7.5t-49.5 -32t-23 -61.5q0 -26 9.5 -45.5t34 -37t45.5 -29t65 -32t71 -35.5q146 -79 146 -198q0 -98 -59 -156.5t-169 -58.5q-52 0 -94 13.5t-65 33t-39 39t-21 33.5z" />
    <glyph glyph-name="T" unicode="T" horiz-adv-x="668" 
d="M653 777q21 -29 21 -69q0 -39 -28 -65t-104 -40q-55 -10 -133 -16l7 -577q-4 -10 -21.5 -17.5t-34.5 -7.5q-78 0 -87 61q-2 29 3 233.5t9 300.5q-76 -2 -110 -2q-58 0 -99 11t-51 29q-10 9 -10 34q0 35 31 36q224 5 360 30q175 31 247 59z" />
    <glyph glyph-name="U" unicode="U" horiz-adv-x="681" 
d="M64 724v-310q0 -62 6.5 -117t25.5 -115.5t49.5 -104t83.5 -72t123 -28.5q67 0 119 31t82.5 80t50 116.5t26.5 131.5t7 135q0 43 -0.5 66t-3.5 57t-9.5 52t-18 37t-30 27t-43.5 8q-32 0 -48 -14q1 -35 1 -89q0 -251 -19 -385q-10 -64 -40.5 -116t-74.5 -52q-37 0 -64 35
t-40 80.5t-20.5 111t-9 104t-1.5 81.5q0 45 2 103.5t2 66.5q0 46 -32.5 68t-72.5 22q-19 0 -31.5 -2.5t-15.5 -5.5z" />
    <glyph glyph-name="V" unicode="V" horiz-adv-x="667" 
d="M28 699l185 -584l16.5 -50t15.5 -35.5t21.5 -28.5t28.5 -13.5t43 -6.5q60 0 92 46l100.5 301l89 260.5t35.5 111.5q-25 19 -56 19q-57 0 -84 -46q-32 -55 -112 -337q-15 -54 -31 -105l-24 -75l-8 -23q-31 98 -61 212q-6 21 -14.5 57l-14.5 60l-15 57.5t-17 56t-18.5 49
t-21 43.5t-23 32.5t-27.5 22.5t-31 7q-21 0 -38 -8t-24 -16z" />
    <glyph glyph-name="W" unicode="W" horiz-adv-x="887" 
d="M739 722q-35 0 -66 -25q0 -1 2 -18.5t2 -19.5q15 -116 15 -255q0 -42 -1 -61l-1 -28q-2 -54 -8.5 -96.5t-15 -64t-16.5 -20.5q-14 0 -39 52.5l-56.5 124.5t-50.5 100q-16 23 -26 32t-29 9q-22 0 -43 -11q-25 -38 -68 -119.5t-73.5 -131.5t-45.5 -50q-14 0 -24 108
t-10 198v18.5v17t0.5 14.5t0.5 12v9v5v2q0 112 8 152q-35 11 -56 11q-32 0 -52.5 -17t-29.5 -50t-12 -64.5t-3 -77.5q0 -134 18 -247t54 -162q42 -57 105 -57h7q84 0 202 288q6 12 11 12q8 0 11 -12q1 -1 1 -3.5t1 -3.5q14 -50 58 -145q24 -52 46 -85.5t43 -48t36.5 -19
t35.5 -4.5t37 9.5t24 19.5l7 10q96 152 96 449q0 61 -4 102t-14 75t-29 50t-48 16z" />
    <glyph glyph-name="X" unicode="X" horiz-adv-x="724" 
d="M707 658q-5 -5 -56 -40.5t-125.5 -97t-144.5 -134.5q57 -78 119 -141.5t112 -104.5t58 -50q19 -19 19 -39q0 -12 -10 -25.5t-26 -19.5q-201 73 -368 269q-94 -118 -168 -260q-13 -23 -21 -39q-10 -2 -17 -2q-24 0 -42 12t-18 33q0 10 5 23q6 17 19 46.5t62.5 114.5
t109.5 161q-59 84 -94 160t-35 110v5q3 29 15.5 49.5t28 30t30.5 15t25 6.5h10q52 -140 123 -258q76 80 147.5 136.5t108 76.5t55.5 23h4q27 0 56.5 -10t29.5 -28q0 -10 -12 -22z" />
    <glyph glyph-name="Y" unicode="Y" horiz-adv-x="553" 
d="M511 723q12 -27 12 -116q0 -252 -45 -388q-78 -235 -293 -235q-37 0 -62 14t-25 41q0 15 9 36q54 0 92 4q123 11 160 207q-47 -19 -100 -19q-58 0 -100.5 23.5t-65 57.5t-36 84.5t-16.5 90t-3 88.5q0 80 -8 120q10 16 57 16q46 0 67 -26.5t27 -76.5q8 -74 13.5 -115.5
t13 -81.5t14.5 -57.5t18.5 -32t25 -18t34.5 -3.5q23 0 70 36q3 40 3 82q0 158 3 206q9 73 85 73q27 0 50 -10z" />
    <glyph glyph-name="Z" unicode="Z" horiz-adv-x="610" 
d="M52 670q174 58 391 58q58 0 94 -11q44 -15 44 -109q0 -19 -5 -34q-7 -20 -120.5 -154.5l-164.5 -191.5q-21 -22 -50.5 -60t-30.5 -50q0 -5 4 -5l311 19q34 0 48.5 -18t14.5 -41l-2 -24q-58 -18 -179 -36.5t-208 -18.5q-41 0 -54 6q-30 15 -48.5 53t-18.5 79q0 20 10 43
q14 28 109 139l181.5 210t84.5 102q-1 3 -17 3q-107 0 -253 -44q-31 -9 -61 -9q-33 0 -53 17t-24 33t-4 33z" />
    <glyph glyph-name="bracketleft" unicode="[" horiz-adv-x="397" 
d="M87 -43q-3 57 -5.5 226t4 369.5t26.5 227.5q42 14 114 14q52 0 82 -13t30 -36q0 -12 -13 -40h-117q2 -68 2 -344q0 -272 -5 -328l121 -2q11 -14 9 -38t-20 -35q-25 -17 -94 -17q-88 0 -134 16z" />
    <glyph glyph-name="backslash" unicode="\" horiz-adv-x="555" 
d="M75 753q28 0 59 -43q77 -106 429 -673q-18 -42 -61 -42q-9 0 -17.5 2t-14.5 4t-12.5 7t-10.5 8.5t-10 11t-8 10.5l-8 12t-7 11q-130 195 -393 638q21 54 54 54z" />
    <glyph glyph-name="bracketright" unicode="]" horiz-adv-x="376" 
d="M283 -43q-46 -16 -134 -16q-69 0 -94 17q-18 11 -20 35t9 38l121 2q-5 56 -5 328q0 276 2 344h-117q-13 28 -13 40q0 23 30 36t82 13q72 0 114 -14q20 -27 26.5 -227.5t4 -369.5t-5.5 -226z" />
    <glyph glyph-name="asciicircum" unicode="^" horiz-adv-x="490" 
d="M26 216q-26 0 -42 31q32 87 117 216t126 129q40 0 122 -108.5t149 -229.5q-11 -47 -60 -47q-20 0 -41 14.5t-44.5 44.5t-39.5 54l-43 67.5l-37 59.5l-51 -75t-53 -71.5t-58.5 -63t-44.5 -21.5z" />
    <glyph glyph-name="underscore" unicode="_" horiz-adv-x="842" 
d="M454 -52q163 0 283 8q28 24 28 45q0 52 -129 60q-24 1 -180 1q-224 -1 -340 -9q-11 -18 -11 -35q0 -49 68.5 -59.5t280.5 -10.5z" />
    <glyph glyph-name="a" unicode="a" horiz-adv-x="463" 
d="M401 221q0 -33 16.5 -81.5t35.5 -67.5q-18 -15 -49 -15q-42 0 -63.5 34t-26.5 75q-20 -56 -71 -94t-100 -38q-55 0 -91.5 40t-36.5 102q0 106 71.5 189t172.5 83q53 0 97 -33t53 -69q-8 -36 -8 -125zM165 137q38 0 80.5 80.5t52.5 140.5q-10 28 -33 28q-38 0 -80 -75.5
t-42 -129.5q0 -17 6 -30.5t16 -13.5z" />
    <glyph glyph-name="b" unicode="b" horiz-adv-x="444" 
d="M278 414q72 0 111 -53t39 -128q0 -88 -50.5 -156t-137.5 -68q-42 1 -63.5 17t-21.5 40q0 16 9.5 37t25.5 33q7 -15 23.5 -25.5t34.5 -10.5q24 0 41 32.5t17 87.5q0 43 -18.5 76t-46.5 33q-45 0 -78 -72q-19 -244 -96 -244q-25 0 -41 11q11 40 16.5 86t6.5 79.5t1 103.5
q0 215 -23 383q23 13 44 13q55 0 76 -37.5t21 -110.5q0 -5 0.5 -37t0.5 -69.5t-1 -74.5q49 54 110 54z" />
    <glyph glyph-name="c" unicode="c" horiz-adv-x="381" 
d="M365 106q0 -32 -49.5 -57.5t-101.5 -25.5q-101 0 -151.5 56.5t-50.5 139.5q0 91 56.5 160.5t154.5 69.5q55 0 96.5 -28t41.5 -59q0 -16 -13 -28t-43 -25q-37 63 -73 63q-41 0 -64 -43t-23 -98q0 -54 23 -93t66 -39q51 0 96 51q35 -16 35 -44z" />
    <glyph glyph-name="d" unicode="d" horiz-adv-x="451" 
d="M398 348q0 -81 2 -122.5t13 -89t34 -76.5q-2 -13 -17 -21.5t-39 -8.5q-57 0 -83 87q-47 -80 -134 -80q-45 0 -80 21t-52.5 55t-25.5 74.5t0.5 81t27 74.5t52.5 55t77 21q62 0 111 -47v17q0 158 19.5 233.5t77.5 75.5q28 0 63 -35q-46 -129 -46 -315zM200 118
q27 0 51.5 41.5t31.5 118.5q-31 56 -75 56q-29 0 -48 -30.5t-19 -80.5q0 -53 17.5 -79t41.5 -26z" />
    <glyph glyph-name="e" unicode="e" horiz-adv-x="369" 
d="M325 162q24 -10 24 -50q0 -39 -41 -65t-92 -26q-33 0 -66.5 12.5t-64 37t-49.5 67t-19 96.5q0 90 50 157t130 67q56 0 91 -31t35 -87q0 -110 -156 -189q24 -43 64 -43q11 0 21.5 3t18.5 7t17.5 11t14 11t13 12.5zM203 378q-21 0 -39.5 -29.5t-18.5 -84.5q0 -28 3 -51
q47 32 73 62t26 69q0 34 -44 34z" />
    <glyph glyph-name="f" unicode="f" horiz-adv-x="342" 
d="M340 508q3 -7 3 -16q0 -38 -33 -48q-32 -9 -97 -14q0 -54 5 -148.5t5 -123.5q0 -75 -27 -112.5t-93 -37.5q-19 0 -28 2q7 45 7 140q0 36 -2 129.5t-1 143.5q-11 -1 -38 -1q-20 0 -32.5 12t-12.5 33q0 15 5 37q31 -5 81 -7q5 68 21 109q33 95 126 95q25 0 48 -19t28 -50
q-37 -13 -62.5 -46.5t-28.5 -84.5q85 4 126 7z" />
    <glyph glyph-name="g" unicode="g" horiz-adv-x="450" 
d="M207 86q3 -1 29.5 -5.5t37 -6.5t37 -9.5t40 -14.5t33.5 -19.5t30 -27.5t18 -36t8 -46q0 -85 -70.5 -131t-161.5 -46q-84 0 -149 40t-65 111q0 44 23.5 70t60.5 26q41 0 74 -27q-23 -28 -23 -69q0 -35 24 -59t64 -24q38 0 62.5 24t24.5 60q0 78 -124 109q-128 33 -128 103
q0 28 31 54q-35 23 -53 59.5t-18 75.5q0 44 23.5 74t65.5 30q4 44 36.5 66.5t82.5 22.5t86 -26q36 63 85 63q18 0 31.5 -15.5t13.5 -45.5q0 -2 -0.5 -6t-0.5 -7q-48 -12 -88 -36q22 -40 22 -92q0 -78 -52 -135t-130 -57q-25 0 -42 4q-6 -6 -6 -16t10.5 -17.5t22 -10z
M183 412q-17 0 -36 -23q28 -18 30 -53q0 -6 -2 -17t-2 -16q-16 -4 -26 -20t-10 -36q0 -21 14.5 -35t33.5 -14q25 0 40.5 31.5t15.5 73.5q0 109 -58 109z" />
    <glyph glyph-name="h" unicode="h" horiz-adv-x="454" 
d="M126 5q-32 0 -52 23.5t-31 78.5q-11 57 -11 134q0 67 3 194.5t3 186.5q0 35 -3 68q3 0 8 0.5t8 0.5q131 0 131 -134q0 -27 -13.5 -147.5t-11.5 -192.5q0 -2 -0.5 -17t-1 -25t0.5 -18q7 15 23 53.5l30 70t31.5 65t37 53t37.5 19.5q19 0 41 -16.5t32 -33.5q-4 -102 0 -148
q8 -110 62 -116q11 -17 11 -32q0 -17 -18 -26.5t-42 -9.5q-51 0 -89 63.5t-46 139.5q-12 -24 -43 -97t-45 -101q-19 -36 -52 -36z" />
    <glyph glyph-name="i" unicode="i" horiz-adv-x="214" 
d="M120 556q30 0 45.5 -17t15.5 -38q0 -25 -28 -50t-54 -25q-28 0 -43 28.5t-15 54.5q0 24 25 35.5t54 11.5zM165 36q-32 -19 -57 -19q-43 0 -56 29t-13 101q0 23 2 77.5t2 94.5t-1 65q36 6 52 6q77 0 77 -76q0 -44 -3 -128t-3 -150z" />
    <glyph glyph-name="j" unicode="j" horiz-adv-x="213" 
d="M103 423q35 0 54.5 29.5t19.5 58.5q0 43 -58 43q-36 0 -66 -15.5t-30 -41.5q0 -31 22.5 -52.5t57.5 -21.5zM166 380q12 -47 12 -321q0 -306 -96 -306q-13 0 -24 3.5t-28.5 13.5t-22.5 12q48 122 48 274q0 60 -8.5 156t-8.5 111q0 63 77 63q26 0 51 -6z" />
    <glyph glyph-name="k" unicode="k" horiz-adv-x="430" 
d="M421 94q4 -9 4 -32t-20.5 -38.5t-49.5 -15.5q-27 0 -50.5 11t-39.5 24.5t-34 42t-27 46.5l-27 56q-24 -14 -37 -21l-3 -66q-2 -39 -16.5 -69.5t-46.5 -30.5q-28 0 -55 19q19 72 19 284q0 254 -24 362q51 29 84 29q57 0 57 -99q0 -76 -12 -349q49 36 87.5 90t45.5 117
q24 13 57 13q54 0 54 -53q0 -82 -130 -174q25 -47 51 -77q50 -57 113 -69z" />
    <glyph glyph-name="l" unicode="l" horiz-adv-x="284" 
d="M268 108q3 -16 3 -30q0 -22 -9 -37t-22.5 -21.5t-24 -9t-19.5 -2.5q-93 0 -129 73.5t-36 254.5q0 247 -6 355q12 2 35 2q56 0 80 -29t23 -86q0 -4 -6.5 -145t-1.5 -194q7 -75 24 -105.5t54 -30.5q19 0 35 5z" />
    <glyph glyph-name="m" unicode="m" horiz-adv-x="715" 
d="M661 184q0 -51 8 -75.5t28 -50.5q-4 -12 -23 -20.5t-38 -8.5q-46 0 -68 36.5t-22 120.5q0 24 4.5 64t4.5 65q0 11 -6 11q-4 0 -8.5 -3t-9 -10.5l-8.5 -14.5t-9.5 -19.5t-9 -22t-10 -25.5l-10.5 -26q-25 -66 -50 -104.5t-56 -38.5q-40 0 -65 39q19 120 19 176q0 66 -10 66
q-11 0 -32.5 -47l-45 -103t-61.5 -103t-78 -47q-44 0 -74 32q0 6 3.5 41t4 42.5l2.5 38t2 41v36t-1.5 39.5t-4 34.5t-6.5 37.5t-10 34q29 27 65 27q75 0 75 -143q0 -59 -3 -109q5 11 20.5 48.5t22 51l21 43t25.5 41.5l27 28.5t34 22.5t39 6q42 0 64.5 -32.5t22.5 -86.5
q0 -23 -1 -35q31 72 66 108.5t89 36.5q37 0 59 -24.5t22 -65.5q0 -24 -4 -76.5t-4 -75.5z" />
    <glyph glyph-name="n" unicode="n" horiz-adv-x="480" 
d="M432 176q0 -77 36 -113q-6 -17 -24 -28t-38 -11q-41 0 -72 41t-31 115q0 38 2 94t2 64q0 21 -8 21q-6 0 -15 -5.5t-26 -25t-34.5 -50.5t-39.5 -89t-41 -134q-18 -9 -40 -9q-28 0 -46 10t-26 30.5t-10.5 40.5t-2.5 50q0 31 3.5 91.5t3.5 84.5q0 49 -9 82q35 32 76 32
q26 0 43 -17.5t17 -52.5q0 -9 -3 -63t-3 -87q45 81 84 124.5t58.5 51.5t42.5 8q63 0 83.5 -37.5t20.5 -105.5q0 -29 -1.5 -62.5t-1.5 -49.5z" />
    <glyph glyph-name="o" unicode="o" horiz-adv-x="414" 
d="M248 462q72 0 111 -54.5t39 -133.5q0 -60 -21.5 -115t-68.5 -93t-110 -39q-86 -1 -133 57t-47 132q0 57 26.5 97t72.5 40h2q6 53 41 81t88 28zM203 80q35 0 53.5 51.5t18.5 110.5q0 61 -18.5 101t-61.5 40q-28 0 -50 -35q42 -15 42 -74q0 -18 -5 -40q-39 -15 -39 -76
q0 -30 17.5 -54t42.5 -24z" />
    <glyph glyph-name="p" unicode="p" horiz-adv-x="428" 
d="M390 412q29 -34 29 -95q0 -89 -57 -149.5t-149 -78.5q-21 -4 -60 8q-2 -48 -2 -79q0 -118 19 -253q-41 -9 -67 -9q-49 0 -66 38.5t-12 141.5q13 240 13 345v20.5v20v17.5t-0.5 18t-1 16.5t-1.5 18l-2.5 17t-3.5 19l-4.5 19.5t-5.5 22q39 34 71 34q25 0 40 -21.5t15 -62.5
q0 -48 -8 -69q34 39 82 70.5t91 31.5q46 0 80 -40zM225 157q25 10 60.5 56t35.5 93q0 19 -8 39.5t-23 20.5q-40 0 -78 -47.5t-53 -162.5q34 -13 66 1z" />
    <glyph glyph-name="q" unicode="q" horiz-adv-x="438" 
d="M369 29q-1 -17 -1 -43q0 -33 2.5 -67t5 -54t8 -56t7.5 -47q-41 -9 -67 -9q-43 0 -61 29t-18 104q0 84 11 225q3 36 12 69q-38 -48 -85.5 -75t-81.5 -27q-41 0 -67 32.5t-26 79.5q1 119 96.5 200t222.5 81q31 0 47.5 -14t16.5 -34q0 -26 -25 -42q-16 11 -41 11
q-65 0 -132 -62.5t-67 -132.5q0 -31 24 -31q29 0 69 40t61 100q24 26 65 26q26 0 43.5 -14t17.5 -42q0 -14 -15 -90.5t-22 -156.5z" />
    <glyph glyph-name="r" unicode="r" horiz-adv-x="428" 
d="M423 291q-30 -18 -66 -18q-66 0 -66 70q0 31 -6 31q-5 0 -14 -8t-23.5 -30.5t-29 -57t-31.5 -94.5t-30 -135q-18 -9 -46 -9q-26 0 -44.5 11t-27.5 25.5t-14 40.5t-5.5 43t-0.5 46q0 20 1 59t1 55q0 70 -14 114q34 32 74 32q26 0 44 -17.5t20 -52.5q0 -7 -0.5 -63t1.5 -87
q40 112 88 156.5t86 44.5q35 0 56.5 -10.5t31 -32.5t12.5 -43.5t3 -56.5v-13z" />
    <glyph glyph-name="s" unicode="s" horiz-adv-x="336" 
d="M53 122q9 -14 31.5 -24t40.5 -10q16 0 31 13.5t15 35.5q0 21 -21 44.5t-46 42t-46 47t-21 59.5q0 57 46.5 88.5t107.5 31.5q51 0 70 -23q0 -48 -56 -48q-15 0 -34 3q-10 -13 -10 -25q0 -13 14.5 -27.5t52.5 -44.5q46 -36 67.5 -65t21.5 -63q0 -57 -49 -99t-122 -42
q-50 0 -90.5 18.5t-40.5 53.5q0 15 11 24.5t27 9.5z" />
    <glyph glyph-name="t" unicode="t" horiz-adv-x="337" 
d="M330 508q3 -7 3 -16q0 -38 -33 -48q-23 -7 -85 -13q-13 -145 -13 -214q0 -68 21.5 -99.5t63.5 -47.5q-5 -28 -29 -47t-46 -19q-97 0 -129 101q-15 50 -15 136q0 75 7 182q-13 -1 -44 -1q-20 0 -32.5 12t-12.5 33q0 15 5 37q44 -7 89 -7q5 80 5 137q0 30 -3 63q3 0 17.5 2
t22.5 2q103 0 103 -132q0 -32 -4 -68q17 1 53.5 3.5t55.5 3.5z" />
    <glyph glyph-name="u" unicode="u" horiz-adv-x="466" 
d="M403 182q0 -43 11.5 -65.5t39.5 -38.5q-3 -21 -18 -37.5t-42 -16.5q-34 0 -67.5 24.5t-44.5 85.5q-77 -110 -160 -110q-95 0 -95 125q0 13 1.5 73t1.5 100q0 59 -8 100q50 8 74 8q37 0 50.5 -18t13.5 -58q0 -14 -3 -77t-3 -94q0 -58 31 -58q33 0 95 96q8 112 8 123
q0 50 -8 77q30 4 43 4q45 0 66.5 -23t21.5 -86q0 -10 -4 -59t-4 -75z" />
    <glyph glyph-name="v" unicode="v" horiz-adv-x="417" 
d="M8 374q21 -51 40.5 -113.5l31 -102t26 -76t32 -54t41.5 -17.5q52 0 112.5 73.5t96.5 190.5q18 58 18 101q0 48 -16 74t-44 26q-12 0 -28.5 -9t-26.5 -22q8 -24 8 -69q0 -84 -28.5 -172.5t-59.5 -88.5q-22 0 -22 61q0 23 2.5 66t2.5 61q0 66 -20.5 93t-63.5 27
q-60 0 -102 -49z" />
    <glyph glyph-name="w" unicode="w" horiz-adv-x="586" 
d="M483 425q45 0 66 -39t21 -102q0 -59 -18.5 -114t-60.5 -95t-98 -40q-73 0 -109 81q-25 -51 -61 -74.5t-71 -23.5q-66 0 -100.5 66.5t-34.5 169.5q0 47 4 81.5t14 66t30 47.5t50 16q37 0 75 -15q-16 -21 -29 -84.5t-13 -127.5q0 -135 47 -135q27 0 41.5 44t14.5 93
q0 19 -5 56q21 15 47 15q36 0 47 -23.5t14 -82.5q4 -58 12.5 -82.5t27.5 -24.5q34 0 50.5 41.5t16.5 93.5q0 18 -1.5 34.5t-3 29.5t-5 26t-6 21t-7 18.5t-6.5 14.5l-6 12.5t-5 9.5q24 26 62 26z" />
    <glyph glyph-name="x" unicode="x" horiz-adv-x="419" 
d="M245 229q77 -69 160 -113q-2 -24 -19.5 -43t-36.5 -19q-55 0 -160 85q-37 -57 -69 -87.5t-65 -30.5q-23 0 -39.5 16.5t-23.5 46.5q43 19 70 42.5t63 71.5q-95 99 -95 170q0 37 25.5 66t53.5 29q31 0 35 -18q-11 -25 -11 -50q0 -47 54 -108l33 55.5l27.5 47.5t22.5 33
t25.5 24t28.5 8q19 2 39.5 -7.5t29.5 -29.5q-63 -54 -148 -189z" />
    <glyph glyph-name="y" unicode="y" horiz-adv-x="441" 
d="M349 447q32 0 50 -18t22 -40.5t4 -57.5q0 -37 -14 -110q-5 -27 -16.5 -74.5t-36 -118.5t-53 -131t-70.5 -103t-85 -43q-53 0 -75.5 25t-22.5 56q0 44 14 44q3 0 16.5 -5t26.5 -5q36 0 72.5 41t54.5 79t19 48q13 41 23 79q-38 -43 -79 -43q-25 0 -48.5 22.5t-39.5 58
t-26.5 65t-16.5 55.5q-11 43 -30 84t-36 57q43 27 85 27q45 0 62 -40q8 -20 22 -86t29.5 -112t36.5 -46q14 0 33.5 23.5t32.5 61.5q6 44 6 87q0 63 -12 111q33 9 52 9z" />
    <glyph glyph-name="z" unicode="z" horiz-adv-x="376" 
d="M341 51q-48 27 -127 27q-21 0 -59.5 -5.5t-54.5 -5.5q-32 0 -55.5 23t-23.5 58q0 28 17 46.5t75 60.5q21 15 58 38t55.5 37.5t18.5 23.5q-31 -10 -88 -10q-24 0 -39 1t-37 5.5t-33.5 16.5t-11.5 31q0 32 31 76q28 -22 53 -32t66 -10q15 0 47 1t41 1q38 0 58.5 -13.5
t20.5 -51.5q0 -31 -30 -63t-119 -97q-46 -35 -80 -58q52 20 145 20q43 0 67 -13t24 -49q0 -35 -19 -58z" />
    <glyph glyph-name="braceleft" unicode="{" horiz-adv-x="414" 
d="M327 744q-22 0 -34.5 -23.5t-15 -59t-7.5 -80t-12 -84.5t-28.5 -74t-55.5 -48q38 -17 57 -60.5t23 -92.5t6 -96t13.5 -78t37.5 -31q17 0 30 6q14 -16 14 -30q0 -20 -19 -33.5t-59 -13.5q-39 0 -66.5 16t-42.5 37.5t-24 59t-11.5 64t-4.5 69.5t-11.5 74t-22 46t-24.5 25
t-20 18.5t-8 19.5q0 18 10 26t26 16.5t26 23.5q21 31 32 102q3 21 6.5 59t6 62t12 54.5t24 48.5t42 30.5t66.5 12.5q79 0 79 -41q0 -15 -15 -31q-13 6 -30 6z" />
    <glyph glyph-name="bar" unicode="|" horiz-adv-x="348" 
d="M229 -27q-32 -22 -66 -22q-31 0 -43 17.5t-12 54.5v47l2.5 121t2.5 156.5t1.5 169.5t0.5 145q0 21 0.5 51t0.5 37v46q31 14 57 14q31 0 47 -19.5t17 -44.5v-49q0 -58 -4 -204t-4 -268v-206v-46z" />
    <glyph glyph-name="braceright" unicode="}" horiz-adv-x="414" 
d="M310 441q10 -15 26 -23.5t26 -16.5t10 -26q0 -11 -8 -19.5t-20 -18.5t-24.5 -25t-22 -46t-11.5 -74t-4.5 -69.5t-11.5 -64t-24 -59t-42.5 -37.5t-66.5 -16q-40 0 -59 13.5t-19 33.5q0 14 14 30q14 -6 30 -6q26 0 37.5 31t13.5 78t6 96t23 92.5t57 60.5q-34 14 -55.5 48
t-28.5 74t-12 84.5t-7.5 80t-15 59t-34.5 23.5q-17 0 -30 -6q-15 16 -15 31q0 41 79 41q39 0 66.5 -12.5t42 -30.5t24 -48.5t12 -54.5t6 -62t6.5 -59q11 -71 32 -102z" />
    <glyph glyph-name="asciitilde" unicode="~" horiz-adv-x="595" 
d="M29 218q0 -25 16 -41.5t47 -16.5q11 22 37.5 48t59.5 26q29 0 95.5 -38t110.5 -38q59 0 107 37t48 83q0 43 -50 58q-46 -63 -101 -63q-22 0 -94 37.5t-116 37.5q-57 0 -108.5 -40t-51.5 -90z" />
    <glyph glyph-name="exclamdown" unicode="&#xa1;" horiz-adv-x="318" 
d="M164 374q-32 0 -56.5 14.5t-24.5 40.5q0 31 28.5 65.5t64.5 34.5q34 0 55 -30.5t21 -59.5q0 -30 -26.5 -47.5t-61.5 -17.5zM176 317q-23 0 -38 -16q-17 -46 -32.5 -232t-15.5 -248q15 -47 79 -47q24 0 40.5 9t24.5 21t12.5 35.5t5 39t0.5 45.5q0 100 -17 264
q-4 41 -6.5 57t-9 37t-16.5 28t-27 7z" />
    <glyph glyph-name="cent" unicode="&#xa2;" horiz-adv-x="467" 
d="M413 139q0 -38 -38.5 -68.5t-106.5 -36.5q-2 -61 -5 -75q-5 -18 -30.5 -20t-34.5 11q1 13 2.5 41t2.5 43q-81 9 -126.5 67t-45.5 134q0 82 46.5 150.5t127.5 84.5q0 5 -0.5 12.5t-0.5 10.5q-2 41 14.5 53t49.5 5q3 -28 1 -78q57 -4 92 -30.5t35 -57.5q0 -28 -21 -41.5
t-51 -13.5q-14 44 -57 55q-1 -28 -1 -98q0 -36 0.5 -92.5t0.5 -76.5q55 3 79 71q31 0 49 -14.5t18 -35.5zM155 248q0 -83 50 -115q1 53 0 131q0 68 1 110q-51 -35 -51 -126z" />
    <glyph glyph-name="sterling" unicode="&#xa3;" horiz-adv-x="663" 
d="M565 154q67 -14 67 -62q0 -37 -36.5 -63t-83.5 -26t-86 16t-82.5 44.5t-68.5 39.5q-60 -106 -161 -106q-39 0 -61 25t-22 59q0 47 41 82t113 35h9q7 55 11 145q-66 0 -117 6q-19 64 40 74q18 3 79 6v96q0 93 44 154.5t126 61.5q73 0 112 -35t39 -77q0 -19 -18.5 -32.5
t-41.5 -13.5q-19 0 -36 10q0 78 -35 78q-22 0 -33.5 -48.5t-11.5 -122.5q0 -45 -2 -67q122 0 149 -2q10 -10 9.5 -31.5t-16.5 -33.5q-15 -13 -148 -20q-11 -97 -37 -172q25 -9 64.5 -28t68.5 -29.5t56 -10.5q20 0 33.5 10.5t35.5 37.5zM121 52q38 0 59 76h-14
q-30 0 -51 -13.5t-21 -33.5q0 -11 7 -20t20 -9z" />
    <glyph glyph-name="currency" unicode="&#xa4;" horiz-adv-x="652" 
d="M518 285q60 -48 81 -101q0 -27 -17.5 -41.5t-42.5 -14.5q-36 0 -97 66q-50 -29 -111 -29q-65 0 -115 31q-43 -49 -93 -70q-27 0 -41.5 17.5t-14.5 42.5q0 40 74 104q-10 27 -10 63t10 63q-58 48 -78 99q0 27 17.5 41.5t42.5 14.5q35 0 92 -61q53 33 118 33t115 -31
q41 46 87 64q27 0 41.5 -17.5t14.5 -42.5q0 -40 -70 -100q9 -27 9 -61q0 -39 -12 -70zM332 244q36 0 60 35.5t24 85.5q0 51 -21.5 84t-60.5 33t-62 -34t-23 -85q0 -52 21.5 -85.5t61.5 -33.5z" />
    <glyph glyph-name="yen" unicode="&#xa5;" horiz-adv-x="613" 
d="M515 313q-84 0 -134 -1q-1 -9 -1.5 -27.5t-0.5 -28.5q146 -2 180 -8q5 -25 -6.5 -43.5t-37.5 -20.5q-88 0 -140 -1l-7 -162q-14 -16 -36.5 -27.5t-44.5 -11.5q-25 0 -32.5 19.5t-10.5 74.5q-1 16 -2.5 54t-2.5 52q-122 -2 -168 -3q-15 19 -3 43.5t49 27.5q33 2 120 5
q0 39 -1 56q-120 -2 -165 -3q-15 19 -3 43.5t49 27.5q34 2 118 5v13l-201 324q32 28 91 28q38 0 63 -26q21 -21 75 -132.5t58 -116.5q7 12 47.5 95t78.5 133t75 50q32 0 43 -14q-2 -4 -85.5 -162t-93.5 -187v-4q140 -2 173 -8q5 -25 -6.5 -43.5t-37.5 -20.5z" />
    <glyph glyph-name="brokenbar" unicode="&#xa6;" horiz-adv-x="335" 
d="M233 444q-32 -22 -67 -22q-31 0 -43 17.5t-12 54.5q0 41 2 101.5t2 66.5q0 21 0.5 51t0.5 37v46q31 14 57 14q31 0 47 -19.5t17 -44.5v-49q0 -1 -2 -74t-2 -133v-46zM233 -27q-32 -22 -67 -22q-31 0 -43 17.5t-12 54.5q0 35 2 87t2 88q0 21 0.5 51t0.5 37v46q31 14 57 14
q31 0 47 -19.5t17 -44.5v-49q0 -31 -2 -95.5t-2 -118.5v-46z" />
    <glyph glyph-name="section" unicode="&#xa7;" horiz-adv-x="550" 
d="M459 301q0 -89 -77 -135q38 -55 38 -102q0 -61 -46.5 -105.5t-135.5 -44.5q-70 0 -110.5 31.5t-40.5 70.5q0 23 17 39t36 17t32 -8q1 -37 19.5 -60t47.5 -23q30 0 46.5 17.5t15.5 49.5q0 28 -25 56.5t-60.5 56t-71 58.5t-61 76t-26.5 97q0 89 77 135q-38 55 -38 102
q0 61 46.5 105.5t135.5 44.5q70 0 110.5 -31.5t40.5 -70.5q0 -23 -17 -39t-36 -17t-32 8q-1 37 -19.5 60t-47.5 23q-30 0 -46.5 -17.5t-15.5 -49.5q0 -28 25 -56.5t60.5 -56t71 -58.5t61 -76t26.5 -97zM176 421q0 -16 7.5 -33.5t25 -38t31.5 -35t41.5 -40.5l40.5 -39
q18 15 18 37q0 16 -7.5 33.5t-25 38t-31.5 35t-41.5 40.5l-40.5 39q-18 -15 -18 -37z" />
    <glyph glyph-name="copyright" unicode="&#xa9;" horiz-adv-x="906" 
d="M452 -13q-88 0 -159 28.5t-114.5 76.5t-66.5 107t-23 124q0 90 40.5 168t127.5 130t205 52q161 0 255.5 -97t94.5 -234q0 -65 -22.5 -126.5t-65.5 -113.5t-114 -83.5t-158 -31.5zM705 341q0 120 -73 187t-169 67q-101 0 -180 -72.5t-79 -198.5q0 -123 75.5 -194.5
t172.5 -71.5q63 0 119.5 30t95 96.5t38.5 156.5zM462 157q-83 0 -132 51t-49 126q0 71 51.5 129t137.5 58q49 0 86.5 -24t37.5 -51q0 -14 -11.5 -23.5t-38.5 -21.5q-34 54 -66 54q-36 0 -57 -36t-21 -77q0 -53 20.5 -86.5t59.5 -33.5q19 0 35 12.5t38 42.5q23 0 36 -12
t13 -29q0 -38 -47 -58.5t-93 -20.5z" />
    <glyph glyph-name="ordfeminine" unicode="&#xaa;" horiz-adv-x="268" 
d="M247 511q-22 -10 -38 -10q-33 0 -33 39l4 37q-35 -76 -109 -76q-66 0 -66 76q0 46 33 91q52 70 124 70q24 0 46.5 -19t25.5 -33q0 -139 13 -175zM88 573q1 -12 5 -12q10 0 38.5 43t28.5 72q0 8 -1 11q-32 -14 -53.5 -46t-17.5 -68z" />
    <glyph glyph-name="guillemotleft" unicode="&#xab;" horiz-adv-x="833" 
d="M160 330l53 -40t60 -46.5t48.5 -43t40 -48.5t12.5 -44q0 -52 -42 -65q-107 72 -204 161t-97 133t115 136.5t192 126.5q28 -17 28 -46q0 -58 -206 -224zM418 330l53 -40t60 -46.5t48.5 -43t40 -48.5t12.5 -44q0 -52 -42 -65q-107 72 -204 161t-97 133t115 136.5t192 126.5
q28 -17 28 -46q0 -58 -206 -224z" />
    <glyph glyph-name="logicalnot" unicode="&#xac;" horiz-adv-x="656" 
d="M630 320v-2v-176q0 -13 -12.5 -21t-31.5 -8q-39 0 -58 28l-2 136q-68 -3 -172 -3q-188 0 -248.5 9.5t-60.5 51.5q0 16 10 30q105 7 301 8h44q29 1 57.5 0.5t54 -1.5t47 -4.5t37.5 -9t25 -15.5t9 -23z" />
    <glyph glyph-name="registered" unicode="&#xae;" horiz-adv-x="833" 
d="M492 551q1 -90 -68 -150.5t-153 -60.5q-88 0 -151.5 57t-63.5 142q0 93 55.5 153t166.5 60q83 0 148 -55.5t66 -145.5zM272 385q61 0 105 44.5t44 125.5q0 74 -42 114.5t-101 40.5q-62 0 -108.5 -43.5t-46.5 -120.5q0 -75 44 -118t105 -43zM327 514q30 -36 50 -41
q-3 -15 -11 -23.5t-18 -8.5q-4 0 -7.5 1.5t-7.5 5t-7 6.5t-7.5 9t-6.5 9.5t-6.5 10.5l-6.5 10q-18 26 -19 27q-18 -5 -37 -5q-2 -22 -2 -33q0 -17 9 -44q-12 -3 -24 -3q-28 0 -28 27q0 2 6 38l3 18q-22 5 -23 15q0 13 14 23q5 -8 14 -12q0 6 2 20q1 9 1 63v2
q-18 -10 -18 -24q0 -9 12 -17q-6 -13 -23 -13q-20 0 -20 22q0 24 28.5 48t77.5 24q41 0 64.5 -17.5t23.5 -47.5q0 -43 -48 -71q2 -2 7 -9t8 -10zM252 639q1 -3 1 -10q0 -28 -8 -90q29 2 48 19t19 45q0 37 -48 37q-8 0 -12 -1z" />
    <glyph glyph-name="degree" unicode="&#xb0;" horiz-adv-x="255" 
d="M125 750q51 0 87.5 -32t36.5 -83q0 -53 -36.5 -84t-87.5 -31q-52 0 -87.5 30.5t-35.5 84.5q0 53 36 84t87 31zM125 584q19 0 29 17.5t10 38.5q0 56 -37 56q-39 0 -39 -56t37 -56z" />
    <glyph glyph-name="plusminus" unicode="&#xb1;" horiz-adv-x="585" 
d="M215 354q-105 1 -144 12t-39 49q0 15 7 30q69 6 175 7q-1 34 0 67t4.5 58.5t16 41t32.5 15.5t39 -19q6 -49 7 -162q23 1 45 0.5t42 -1.5t37.5 -4.5t30 -9t19.5 -15.5t7 -23q0 -20 -19 -39q-69 -6 -162 -7q-1 -61 -5.5 -92t-17.5 -48.5t-38 -17.5q-17 0 -30 7
q-6 61 -7 151zM278 153h33.5h35h32.5t31.5 -1.5t26.5 -4t24 -6.5t17.5 -9.5t12 -13.5t3.5 -18q0 -20 -19 -39q-74 -7 -199 -7q-148 0 -196 9.5t-48 51.5q0 15 7 30q84 7 239 8z" />
    <glyph glyph-name="uni00B2" unicode="&#xb2;" horiz-adv-x="283" 
d="M237 552q16 -12 16 -32q0 -13 -9.5 -22.5t-26.5 -9.5q-21 0 -73 23q-34 -21 -70 -21q-21 0 -32.5 10.5t-11.5 25.5q0 16 13.5 28t38.5 12q15 0 58 -13q30 43 30 106q0 26 -8.5 44t-24.5 18q-21 0 -33 -17.5t-12 -41.5q-47 -8 -47 32q0 29 26 50.5t64 21.5
q45 0 68.5 -29.5t23.5 -74.5q0 -66 -48 -120q34 -5 58 10zM76 513q21 0 37 12q-23 9 -35 9q-15 0 -15 -11q0 -10 13 -10z" />
    <glyph glyph-name="uni00B3" unicode="&#xb3;" horiz-adv-x="241" 
d="M146 654q35 -5 52.5 -24.5t17.5 -47.5q0 -38 -31 -67t-85 -29q-36 0 -57 14.5t-21 33.5q0 12 9.5 21.5t27.5 13.5q17 -43 53 -43q21 0 33.5 14t12.5 33q0 17 -11 29.5t-32 12.5h-21q-18 0 -21.5 14t5.5 26q25 0 41 16t16 34q0 9 -5.5 15.5t-14.5 6.5q-16 0 -42 -30
q-23 5 -23 23q0 20 20 30.5t43 10.5q29 0 50.5 -14t21.5 -42q0 -35 -39 -51z" />
    <glyph glyph-name="uni00B5" unicode="&#xb5;" horiz-adv-x="573" 
d="M528 501q3 -41 0 -254t-4 -227q-2 -18 -62 -18q-13 0 -30 8.5t-21 19.5q-7 15 -9.5 67t-1.5 97l1 44l-5.5 -8.5t-15 -19t-24 -24t-31.5 -19t-37 -8.5q-63 0 -105 74v-5q-4 -61 -6 -117.5t-3 -91.5t-2 -66l-1.5 -47.5t-2 -29.5t-4.5 -18t-8 -7q-15 -5 -26 -5q-43 0 -65 42
q-11 21 -12 61q-11 185 -11 348q0 234 31 253q7 5 33 5q8 0 17.5 -0.5t10.5 -0.5q23 0 35.5 -27.5t16.5 -102.5q7 -33 16.5 -62.5t32 -58.5t50.5 -29q29 0 52.5 23t35 54.5t17 56t5.5 35.5v3q5 86 23 93q8 5 22 5q84 0 88 -43z" />
    <glyph glyph-name="paragraph" unicode="&#xb6;" horiz-adv-x="508" 
d="M425 777q9 -28 9 -77v-46q0 -54 -3.5 -192t-3.5 -253v-194v-43q-27 -21 -54 -21q-26 0 -36 16.5t-10 51.5l1 45q0 44 1 113.5t2 147.5t1.5 159.5t0.5 136.5q0 18 0.5 45t0.5 34l-62 -1v-45q0 -54 -3.5 -192t-3.5 -253v-194v-43q-27 -21 -54 -21q-26 0 -36 16.5t-10 51.5
l1 29q0 29 0.5 77t1 104.5t1.5 124t1 124.5q-141 19 -141 147q0 87 58 130t155 38q116 -5 183 -16z" />
    <glyph glyph-name="periodcentered" unicode="&#xb7;" horiz-adv-x="166" 
d="M92 391q68 0 68 -56q0 -33 -23.5 -64t-55.5 -31q-31 0 -51 28t-20 59q0 32 24.5 48t57.5 16z" />
    <glyph glyph-name="cedilla" unicode="&#xb8;" horiz-adv-x="221" 
d="M56 222q24 63 25 63l80 5l-28 -57q37 -7 61 -31t24 -62q0 -42 -34.5 -70.5t-81.5 -28.5q-30 0 -64.5 14.5t-34.5 42.5q0 9 7 14t17 5q6 0 21.5 -2.5t22.5 -2.5q44 0 44 42q0 38 -49 49z" />
    <glyph glyph-name="uni00B9" unicode="&#xb9;" horiz-adv-x="201" 
d="M126 768q19 0 33 -17.5t14 -49.5q0 -15 -4 -61t-4 -77q0 -36 6 -58q-15 -23 -46 -23q-25 0 -25 43q0 19 5 71t5 82q0 22 -5 22q-7 0 -19.5 -14t-19.5 -38q-18 -4 -28.5 5.5t-10.5 24.5q0 28 35.5 59t63.5 31z" />
    <glyph glyph-name="ordmasculine" unicode="&#xba;" horiz-adv-x="266" 
d="M131 744q53 0 90.5 -35.5t37.5 -91.5q0 -57 -37.5 -91.5t-90.5 -34.5q-54 0 -90.5 34t-36.5 92t37 92.5t90 34.5zM131 561q20 0 29.5 18.5t9.5 43.5q0 62 -37 62q-39 0 -39 -62t37 -62z" />
    <glyph glyph-name="guillemotright" unicode="&#xbb;" horiz-adv-x="682" 
d="M39 554q0 29 28 46q77 -34 192 -126.5t115 -136.5t-97 -133t-204 -161q-42 13 -42 65q0 21 12.5 44t40 48.5t48.5 43t60 46.5l53 40q-206 166 -206 224zM297 554q0 29 28 46q77 -34 192 -126.5t115 -136.5t-97 -133t-204 -161q-42 13 -42 65q0 21 12.5 44t40 48.5
t48.5 43t60 46.5l53 40q-206 166 -206 224z" />
    <glyph glyph-name="questiondown" unicode="&#xbf;" horiz-adv-x="469" 
d="M262 373q-39 0 -61.5 15.5t-22.5 37.5q0 34 28.5 68t66.5 34q31 0 52.5 -30.5t21.5 -57.5q0 -33 -27.5 -50t-57.5 -17zM44 -61q0 44 19.5 82t43.5 61l53.5 53t42.5 56q25 48 12 105q28 19 53 19q30 0 45 -21.5t15 -55.5q0 -44 -17.5 -80.5t-42.5 -62.5l-49.5 -51
t-42 -57.5t-17.5 -70.5q0 -29 18 -51.5t49 -22.5q38 0 58 24.5t18.5 57t-11.5 63.5q12 12 32 21t35 9q27 0 45 -17.5t18 -50.5q-3 -85 -57.5 -129t-130.5 -44q-74 0 -131.5 47.5t-57.5 115.5z" />
    <glyph glyph-name="AE" unicode="&#xc6;" horiz-adv-x="827" 
d="M768 146q12 0 23 -16.5t11 -34.5q0 -40 -63 -60.5t-156 -20.5q-64 0 -123 10q-44 3 -65 24v12q0 99 -10 243q-66 -8 -155 -17q-1 -8 -2.5 -23.5t-2.5 -23.5q0 -5 -3.5 -44t-6 -61t-8.5 -56t-15 -58t-21 -38q-23 -27 -84 -27q-30 0 -48 23t-10 60q1 4 1 11t1 10
q9 95 30 209q-6 -1 -12 -1q-14 0 -21 11t-7 21l3 15l48 10q27 123 58 199q54 134 92 183.5t88 49.5q8 0 30 -9q16 -6 31 -16q99 33 222 33q23 0 51 -3.5t60.5 -11t54 -22.5t21.5 -36q0 -14 -1 -21.5t-5.5 -17t-15.5 -13.5t-30 -4q-2 0 -6.5 0.5t-7.5 0.5q-48 5 -98 5
q-166 0 -166 -52q19 -63 35 -175q105 -3 145 -3q73 0 103.5 -9t24.5 -37v-4q-2 -9 -6.5 -16.5t-10 -13t-12.5 -9.5t-13 -6.5t-14.5 -4.5t-14.5 -3t-14 -1.5t-12 -0.5h-10.5h-7.5h-145q9 -90 14 -174q53 -8 82 -8q11 0 33.5 2.5t46.5 5.5t46 6.5l35.5 5.5t12.5 2zM239 353
q82 12 141 16q-1 13 -6 62q-12 86 -28.5 151t-25.5 65q-7 0 -20 -32.5t-30.5 -103.5t-30.5 -158z" />
    <glyph glyph-name="multiply" unicode="&#xd7;" horiz-adv-x="463" 
d="M429 202q6 -26 -3.5 -44t-29.5 -18q-13 0 -30.5 10t-43.5 33.5l-41.5 38.5l-47.5 48q-97 -99 -129 -118q-40 -24 -71 7q-11 13 -18 30q19 23 35 40t51 51.5l62 61.5l-43.5 43.5t-34.5 34l-25.5 27t-28.5 32.5q7 17 18 30q16 16 31.5 19t39 -12t46 -36l67.5 -66
q110 114 147 114q20 0 29.5 -18t3.5 -44q-32 -45 -108 -124q83 -85 124 -140z" />
    <glyph glyph-name="Oslash" unicode="&#xd8;" 
d="M525 647q45 -46 68 -117.5t23 -150.5q0 -63 -19 -128.5t-54 -123t-94 -94.5t-131 -37q-65 0 -116 23q-3 -6 -9 -16.5t-8 -15.5q-23 -36 -52 -36q-46 0 -45 46l40 73q-102 103 -102 311q0 71 19 133t47.5 102.5t62 70.5t62 44t48.5 15q25 0 27 -26q-8 -7 -17.5 -16.5
t-29 -39t-34.5 -64t-26.5 -92.5t-11.5 -123q0 -103 25 -181l209 403q-18 14 -37 14q-50 0 -76 -54q-15 6 -29 20.5t-14 34.5q0 41 41.5 63.5t82.5 22.5q43 0 80 -14l21 35q27 41 50 41q5 0 8.5 -1t6.5 -5t5 -8l7 -13.5t11 -18.5zM465 285q9 52 9 120q0 67 -14 115l-211 -411
q33 -40 68 -40q112 10 148 216z" />
    <glyph glyph-name="Thorn" unicode="&#xde;" horiz-adv-x="595" 
d="M582 391q0 -9 -1 -23t-12.5 -52t-32 -69t-67 -60.5t-110.5 -39.5q-65 -9 -106 -9q-33 0 -52 4q-12 -107 -34 -164q-27 -12 -49 -12q-38 0 -41 43v8q0 10 4 98t4 160q0 270 -37 467q41 31 83 31q12 0 23 -4q37 -16 53 -135q4 1 13 1.5t13 0.5h18q89 0 159.5 -23t119 -79
t52.5 -138v-5zM229 204q90 0 142.5 46.5t52.5 132.5q0 84 -46 128t-133 44q-20 0 -31 -1q1 -14 1 -40q0 -32 -1 -46q-1 -21 -3 -114t-5 -149q7 -1 23 -1z" />
    <glyph glyph-name="germandbls" unicode="&#xdf;" horiz-adv-x="833" 
d="M260 694q-25 -25 -41.5 -54t-24 -66t-10 -62t-4.5 -72t-3 -66q-6 -99 -6 -196q0 -62 1 -92q1 -39 41 -69q21 -19 58 -19q13 0 21.5 8t13.5 28t7 44t3 66.5t1 84.5t1 109t3 129v4q0 209 92 209q26 0 38 -22t12 -52q0 -35 -30 -85t-30 -85q0 -16 5 -29q14 -36 46 -63
t61 -41t51.5 -43.5t22.5 -73.5q0 -42 -33 -68t-129 -26q-13 0 -20 -11t-7 -25q0 -15 7 -22q51 -45 156 -45q80 0 134 46.5t54 124.5q0 68 -36.5 112.5t-118.5 94.5q-9 6 -25 14.5t-26 14.5t-20.5 13.5t-16 14.5t-5.5 14q0 8 13 22t28.5 29t28.5 47t13 73q0 61 -63.5 98
t-135.5 37q-75 0 -127 -50z" />
    <glyph glyph-name="ae" unicode="&#xe6;" horiz-adv-x="717" 
d="M683 141q16 -28 16 -49q0 -24 -18 -40.5t-43.5 -23.5t-41.5 -9.5t-24 -2.5q-71 0 -124 32t-81 87q-8 -12 -26 -34q-77 -96 -177 -96q-54 0 -98 33.5t-44 85.5q0 74 73.5 113.5t163.5 39.5h7q-3 124 -113 124l-53 -5q-28 0 -32 26q-3 19 29.5 36t65.5 17h4
q67 0 118.5 -29.5t81.5 -80.5q23 51 63 82t91 31q54 0 82.5 -34t28.5 -92q0 -107 -126 -194q35 -55 94 -55q10 0 22 4.5t18.5 7.5t23 13.5zM527 398q-20 0 -37 -29t-17 -77q0 -38 8 -73q75 71 75 137q0 42 -29 42zM134 72q30 0 75 57q32 40 46 81q-52 -10 -99.5 -39.5
t-47.5 -66.5q0 -25 17 -31q3 -1 9 -1z" />
    <glyph glyph-name="eth" unicode="&#xf0;" horiz-adv-x="600" 
d="M462 322q0 -4 0.5 -12t0.5 -12q0 -137 -71 -217.5t-155 -80.5q-28 0 -49 2t-54 12.5t-54.5 29t-37.5 55.5t-16 89q0 77 43 135.5t102 85.5t120 29q-10 41 -32 83q-81 -44 -101 -13q-19 29 50 72h1l1 1q-30 23 -75 23q-14 0 -39.5 -7t-29.5 -7q-31 0 -31 33q0 7 3 18
q60 42 134 42q75 0 137 -38l41 25q34 22 57 -14q13 -20 -37 -62q85 -94 92 -272zM228 66q11 0 29 32t33.5 92t15.5 122q0 37 -6 79q-67 -18 -110 -92q-27 -46 -27 -99q0 -52 23.5 -93t41.5 -41z" />
    <glyph glyph-name="divide" unicode="&#xf7;" horiz-adv-x="575" 
d="M286 552q35 0 55.5 -14t20.5 -33q0 -31 -25.5 -61.5t-60.5 -30.5q-28 0 -47.5 27.5t-19.5 51.5q0 30 24.5 45t52.5 15zM297 273q132 0 209 7q21 20 21 39q0 10 -4 18t-13 13.5t-18 9.5t-25 6.5t-28 4t-33 1.5h-34h-37h-36q-164 -1 -251 -8q-8 -15 -8 -30
q0 -42 50.5 -51.5t206.5 -9.5zM285 91q-35 0 -55.5 14t-20.5 33q0 31 25.5 61.5t60.5 30.5q28 0 47.5 -27.5t19.5 -51.5q0 -30 -24.5 -45t-52.5 -15z" />
    <glyph glyph-name="oslash" unicode="&#xf8;" horiz-adv-x="414" 
d="M347 422q51 -54 51 -148q0 -60 -21.5 -115t-68.5 -93t-110 -39q-25 0 -48 5l-23 -43q-15 -23 -34 -23q-29 0 -28 30l32 59q-39 26 -59 70.5t-20 90.5q0 57 26.5 97t72.5 40h2q6 53 41 81t88 28q28 0 55 -10q1 2 3 5t3.5 5.5t2.5 4.5q16 27 32 27q4 0 7 -1.5t4 -4t5 -10
l8 -14.5zM143 158q0 -8 1 -12l106 207q-19 30 -55 30q-28 0 -50 -35q42 -15 42 -74q0 -18 -5 -40q-39 -15 -39 -76zM203 80q35 0 53.5 51.5t18.5 110.5q0 22 -1 33l-96 -188q14 -7 25 -7z" />
    <glyph glyph-name="thorn" unicode="&#xfe;" horiz-adv-x="442" 
d="M173 567q108 0 180.5 -46.5t77.5 -141.5v-4q0 -83 -73.5 -140t-182.5 -57h-13q1 -4 1 -12l3 -81q0 -134 -62 -134q-20 0 -33.5 12.5t-19 32t-7 32.5t-1.5 24v4q2 614 9 684q6 58 46 58q39 -2 56.5 -27.5t17.5 -56.5l-4 -147h5zM162 251q67 2 106.5 32.5t39.5 85.5
q0 59 -36 91.5t-104 32.5h-2q-4 -164 -4 -242z" />
    <glyph glyph-name="dotlessi" unicode="&#x131;" horiz-adv-x="204" 
d="M165 8q-32 -19 -57 -19q-43 0 -56 29t-13 101q0 23 2 77.5t2 94.5t-1 65q36 6 52 6q77 0 77 -76q0 -44 -3 -128t-3 -150z" />
    <glyph glyph-name="Eng" unicode="&#x14a;" horiz-adv-x="661" 
d="M613 460q0 -193 -17 -325q-28 -371 -243 -371q-132 0 -132 80q0 18 15 38t42 20q39 -53 80 -53q39 0 69 42t42 123q-12 5 -23 15t-16.5 17.5t-19.5 28t-21 29.5q-12 17 -106 192t-100 181q-6 0 -6 -184q0 -167 27 -279q-20 -20 -64 -20q-22 0 -38 8t-25.5 25.5t-15 33.5
t-8 45t-3 46.5t-0.5 51.5q0 53 4 172.5t4 185.5q0 48 -1 71q1 35 17 53.5t42 18.5q28 0 47.5 -10.5t38 -38.5t33 -58l43.5 -88t60 -110q14 -24 51.5 -94.5l65.5 -122t28 -46.5q2 6 2 91q0 58 -5 193t-5 181q0 128 88 128q12 0 22 -2.5t15 -5.5l4 -2q9 -96 9 -260z" />
    <glyph glyph-name="eng" unicode="&#x14b;" horiz-adv-x="480" 
d="M120 -96q11 20 39 20q48 -53 88 -53q35 0 44 66.5t13 265.5q2 86 3 135q0 21 -8 21q-6 0 -15 -5.5t-26 -25t-34.5 -50.5t-39.5 -89t-41 -134q-18 -9 -40 -9q-28 0 -46 10t-26 30.5t-10.5 40.5t-2.5 50q0 31 3.5 91.5t3.5 84.5q0 49 -9 82q35 32 76 32q26 0 43 -17.5
t17 -52.5q0 -9 -3 -63t-3 -87q45 81 84 124.5t58.5 51.5t42.5 8q63 0 83.5 -37.5t20.5 -105.5q0 -22 -1 -50t-1 -38q0 -414 -177 -414q-133 0 -145 80q-3 18 9 38z" />
    <glyph glyph-name="OE" unicode="&#x152;" horiz-adv-x="998" 
d="M928 146q12 0 23 -16.5t11 -34.5q0 -40 -63 -60.5t-156 -20.5q-149 0 -234 44q-65 -55 -143 -61q-9 -1 -26 -1q-64 0 -115.5 23t-84 60.5t-54 88.5t-30.5 103.5t-9 109.5q0 85 29.5 158.5t70 116.5t78.5 67.5t60 24.5q12 0 20 -6t10 -12l2 -7q0 -1 -1 -1q-6 -4 -18 -15.5
t-31 -40t-35 -64.5t-27.5 -94t-11.5 -123q0 -146 46.5 -230.5t98.5 -84.5h1q15 1 30.5 6t36 20t37.5 37.5t33 62.5t25 92q11 63 11 123q0 56 -11.5 104.5t-22.5 70t-18 27.5q-12 10 -23 10t-40 -14t-56 -14q-49 0 -49 40q0 9 3 19q18 59 106 59l48 -5q59 -11 101 -50
q99 33 222 33q23 0 51 -3.5t60.5 -11t54 -22.5t21.5 -36q0 -14 -1 -21.5t-5.5 -17t-15.5 -13.5t-30 -4q-2 0 -6.5 0.5t-7.5 0.5q-47 5 -98 5q-166 0 -166 -52q12 -45 16 -102q105 -3 124 -3q73 0 103.5 -9t24.5 -37v-4q-2 -9 -6.5 -16.5t-10 -13t-12.5 -9.5t-13 -6.5
t-14.5 -4.5t-14.5 -3t-14 -1.5t-12 -0.5h-10.5h-7.5h-142q-10 -59 -37 -119q27 -63 151 -63q11 0 33.5 2.5t46.5 5.5t46 6.5l35.5 5.5t12.5 2z" />
    <glyph glyph-name="oe" unicode="&#x153;" horiz-adv-x="643" 
d="M592 176q24 -10 24 -50q0 -39 -41 -65t-92 -26q-88 0 -148 67q-54 -63 -136 -64q-86 -1 -133 57t-47 132q0 57 26.5 97t72.5 40h2q6 53 41 81t88 28q64 0 105 -46q47 45 110 45q56 0 91 -31t35 -87q0 -110 -159 -191q25 -41 67 -41q11 0 21.5 3t18.5 7t17.5 11t14 11
t13 12.5zM204 91q36 0 57 52.5t21 109.5q0 59 -21.5 100t-64.5 41q-28 0 -50 -35q42 -15 42 -74q0 -18 -5 -40q-39 -15 -39 -76q0 -30 17.5 -54t42.5 -24zM470 392q-22 0 -43.5 -29.5t-21.5 -84.5q0 -28 5 -55q32 22 51 38t36 42.5t17 54.5q0 34 -44 34z" />
    <glyph glyph-name="ogonek" unicode="&#x2db;" horiz-adv-x="218" 
d="M122 273l-13 -5t-28.5 -15.5t-36 -26.5t-28.5 -37.5t-13 -49.5v-4q1 -44 35 -69t80 -25q30 0 64.5 14.5t34.5 42.5q0 9 -7 14t-17 5q-5 0 -16.5 -0.5t-17.5 -0.5q-54 0 -54 39q0 35 71 103z" />
    <glyph glyph-name="uni0401" unicode="&#x401;" horiz-adv-x="619" 
d="M258 774q-29 0 -41.5 18.5t-12.5 43.5q0 8 2 12q8 16 21.5 26t22.5 12l10 2q62 -6 62 -54q0 -28 -16.5 -44t-47.5 -16zM414 774q-29 0 -41.5 18.5t-12.5 43.5q0 8 2 12q8 16 21.5 26t22.5 12l10 2q62 -6 62 -54q0 -28 -16.5 -44t-47.5 -16zM542 212q25 1 42.5 -17
t17.5 -43q0 -53 -49 -92.5t-108 -55t-112 -15.5q-139 0 -223.5 69.5t-84.5 165.5q0 84 51 146t121 80q-78 49 -78 128q0 70 59.5 125t159.5 55q89 0 134 -43.5t45 -92.5q-24 -18 -49 -18q-48 0 -57 40q-6 26 -25.5 42.5t-43.5 16.5q-41 -3 -61 -37.5t-20 -78.5
q0 -25 6 -43.5t20 -29.5t22.5 -16t28 -10.5t21.5 -6.5q27 -9 27 -33q0 -39 -60 -47l-26 -4q-59 -15 -88.5 -61.5t-29.5 -93.5q0 -72 46 -126.5t129 -54.5q57 0 106.5 45.5t78.5 105.5z" />
    <glyph glyph-name="uni0410" unicode="&#x410;" horiz-adv-x="565" 
d="M547 356q6 -5 6 -14q0 -7 -5.5 -13t-13.5 -7q-2 -1 -32 -6q16 -114 16 -208q0 -23 -1 -35.5t-5.5 -31.5t-16 -28t-30.5 -9q-17 0 -43.5 6t-37.5 17q13 98 13 131q0 81 -4 145q-32 -4 -92.5 -10.5l-78.5 -8.5q-23 -160 -26 -176q-21 -124 -95 -124q-57 0 -74 44
q34 102 38 123q13 69 21 118l-27 -2q-27 0 -27 32q0 5 2 15l61 12q29 180 88 310q31 69 61.5 94.5t72.5 25.5q40 0 68.5 -28.5t56.5 -115t52 -241.5q38 -2 53 -15zM232 350q87 13 157 19q-4 42 -7 62q-32 234 -57 234q-26 0 -49 -76q-17 -59 -44 -239z" />
    <glyph glyph-name="uni0411" unicode="&#x411;" horiz-adv-x="658" 
d="M373 463q125 0 194 -69t69 -165q0 -101 -75.5 -175.5t-209.5 -74.5q-23 0 -51 4.5t-56 20.5t-28 40q0 30 25 53q57 -41 108 -41q59 0 109.5 55t50.5 126q0 63 -52.5 107.5t-116.5 44.5q-97 0 -163 -41q0 -176 -11 -259q-7 -55 -16 -67q-12 -18 -42 -18q-28 0 -46 25
q-2 36 -2 486q0 137 4 162q5 30 12 35q8 7 30 7q91 -7 128 -7q54 0 119 6q139 13 195 32q11 -17 11 -51q0 -38 -24.5 -59.5t-87.5 -28.5q-32 -3 -82 -3q-33 0 -115.5 8.5t-89.5 9.5q13 -154 16 -203q104 40 197 40z" />
    <glyph glyph-name="uni0412" unicode="&#x412;" horiz-adv-x="663" 
d="M437 461q77 0 142 -53t65 -147q0 -128 -83 -205t-214 -77q-23 0 -51 4.5t-56 20.5t-28 40q0 30 25 53q57 -41 108 -41q59 0 109.5 55t50.5 126q0 66 -40.5 112t-100.5 46q-21 0 -54 -9t-47 -9q-37 0 -37 35q0 19 9 28.5t39 9.5h13l7 1q12 0 27.5 32.5t15.5 69.5
q0 40 -23.5 69t-56.5 29q-44 0 -79 -23q-2 -58 -2 -98q0 -321 -14 -441q-4 -30 -8 -45.5t-18 -28.5t-39 -13q-29 0 -55 27q-4 286 -4 490q0 178 21 202q37 43 71 43q41 0 53 -18q0 -1 -0.5 -9.5t-1.5 -23.5t-1 -30q73 42 134 42q55 0 98 -39.5t44 -95.5q0 -33 -12.5 -64
t-23.5 -45t-20 -22q22 2 37 2z" />
    <glyph glyph-name="uni0413" unicode="&#x413;" horiz-adv-x="449" 
d="M298 573q-55 0 -126 17q15 -206 15 -385q0 -119 -5 -195q-4 -10 -21.5 -17.5t-34.5 -7.5q-27 0 -55.5 16.5t-31.5 44.5q19 104 19 347q0 181 -8 248q0 59 60 59q8 0 59 -6t69 -6q62 0 134.5 12.5t83.5 23.5q10 -20 10 -52q0 -51 -40 -75t-128 -24z" />
    <glyph glyph-name="uni0414" unicode="&#x414;" horiz-adv-x="768" 
d="M714 69q43 -30 43 -107q0 -87 -55 -87q-37 0 -70 25q7 30 7 68l-2 38q-32 -1 -84.5 -2.5t-163.5 -5.5t-184.5 -7t-73.5 -4q7 -35 7 -60q0 -41 -50 -41q-14 0 -25.5 3.5t-17.5 8l-11 8.5l-4 4q-1 0 -3.5 9t-5 26t-2.5 33q0 37 15.5 65t43.5 32q8 1 76 7q39 83 110 444
q12 62 41 106.5t64 65t63 28.5t52 8q64 0 104 -27q-4 -112 -4 -174q0 -242 31 -445q79 -5 99 -19zM282 88q124 5 218 4q-10 34 -12 53q-21 167 -21 326q0 69 10 162q-32 0 -55 -22.5t-37.5 -69t-23 -90.5t-20.5 -115t-22 -115q-19 -86 -37 -133z" />
    <glyph glyph-name="uni0415" unicode="&#x415;" horiz-adv-x="619" 
d="M542 212q25 1 42.5 -17t17.5 -43q0 -53 -49 -92.5t-108 -55t-112 -15.5q-139 0 -223.5 69.5t-84.5 165.5q0 84 51 146t121 80q-78 49 -78 128q0 70 59.5 125t159.5 55q89 0 134 -43.5t45 -92.5q-24 -18 -49 -18q-48 0 -57 40q-6 26 -25.5 42.5t-43.5 16.5
q-41 -3 -61 -37.5t-20 -78.5q0 -25 6 -43.5t20 -29.5t22.5 -16t28 -10.5t21.5 -6.5q27 -9 27 -33q0 -39 -60 -47l-26 -4q-59 -15 -88.5 -61.5t-29.5 -93.5q0 -72 46 -126.5t129 -54.5q57 0 106.5 45.5t78.5 105.5z" />
    <glyph glyph-name="uni0416" unicode="&#x416;" horiz-adv-x="941" 
d="M917 124q3 -15 3 -28q0 -87 -107 -87q-29 0 -55.5 11t-51 36.5t-43 48.5t-42.5 67.5l-38 72t-39 81.5q-1 0 -1 -1l-7.5 -133t-5.5 -104q-4 -84 -57 -84q-31 0 -50 12q-4 17 -8 310h-1q-25 -54 -39 -81.5l-38 -72t-42.5 -67.5t-43 -48.5t-51 -36.5t-55.5 -11
q-107 0 -107 87q0 13 3 28q118 22 197 116q57 67 94 134q-130 80 -185 146t-55 131q0 39 15.5 56t46.5 17q37 0 71 -18q10 -86 64.5 -159.5t124.5 -124.5q-2 154 -2 208q0 50 23.5 80t68.5 30q22 0 43 -12q2 -10 2 -30.5t-1 -68.5t-1 -91v-25q0 -61 -1 -91q70 52 123.5 125
t63.5 159q34 18 71 18q31 0 46.5 -17t15.5 -56q0 -65 -55 -131t-185 -146q37 -67 94 -134q79 -94 197 -116z" />
    <glyph glyph-name="uni0417" unicode="&#x417;" horiz-adv-x="572" 
d="M417 437q67 -29 101.5 -83.5t34.5 -117.5q0 -101 -86.5 -175.5t-227.5 -74.5q-87 0 -156 33.5t-69 93.5q0 32 16.5 54.5t35.5 31.5q23 -30 38 -46.5t41 -39.5t55 -33.5t63 -10.5q74 0 116 50.5t42 119.5q0 47 -21 86t-62 59q-55 -25 -106 -25q-21 0 -34 7t-16 14l-3 7
q7 1 21 5l-21 -5q-5 10 -5 17q0 31 32.5 45t72.5 14q35 0 60 -4q31 34 31 85q0 41 -20.5 67.5t-57.5 26.5q-22 0 -69 -17t-62 -17q-39 0 -61 21t-22 53q0 33 12 55q51 -17 163 -17q99 0 159.5 -37.5t60.5 -122.5q0 -63 -56 -119z" />
    <glyph glyph-name="uni0418" unicode="&#x418;" 
d="M546 11q-43 0 -65 46.5t-24 115t2.5 137t10 123.5t3.5 62q-6 -6 -105 -190t-111 -201q-10 -13 -23 -33.5t-19.5 -29t-18.5 -19t-27 -14t-37 -3.5q-7 0 -13.5 2.5t-10 5t-12 9.5t-12.5 10q-10 7 -16 34.5t-8.5 77.5t-3 84.5t-0.5 97.5q0 21 -1 114t-1 146q0 83 -6 134
q18 10 44 10q88 0 88 -128q0 -46 -5.5 -181.5t-5.5 -192.5q0 -78 2 -84q0 -5 28 44.5l66 119l51 92.5l54.5 95.5l43 77.5t32.5 54t31.5 40t31 20t39.5 8q32 0 50 -13q-13 -115 -16.5 -170.5t-3.5 -181.5q0 -84 12.5 -166.5t35.5 -116.5q-26 -36 -80 -36z" />
    <glyph glyph-name="uni0419" unicode="&#x419;" 
d="M228 843q18 0 30 -12t18 -27t21 -27t37 -12q21 0 35.5 11.5t21 25.5t18.5 25.5t28 11.5q21 0 45 -27q-2 -55 -45 -85.5t-104 -30.5q-60 0 -104.5 30.5t-48.5 86.5q20 30 48 30zM546 11q-43 0 -65 46.5t-24 115t2.5 137t10 123.5t3.5 62q-6 -6 -105 -190t-111 -201
q-10 -13 -23 -33.5t-19.5 -29t-18.5 -19t-27 -14t-37 -3.5q-7 0 -13.5 2.5t-10 5t-12 9.5t-12.5 10q-10 7 -16 34.5t-8.5 77.5t-3 84.5t-0.5 97.5q0 21 -1 114t-1 146q0 83 -6 134q18 10 44 10q88 0 88 -128q0 -46 -5.5 -181.5t-5.5 -192.5q0 -78 2 -84q0 -5 28 44.5l66 119
l51 92.5l54.5 95.5l43 77.5t32.5 54t31.5 40t31 20t39.5 8q32 0 50 -13q-13 -115 -16.5 -170.5t-3.5 -181.5q0 -84 12.5 -166.5t35.5 -116.5q-26 -36 -80 -36z" />
    <glyph glyph-name="uni041A" unicode="&#x41a;" horiz-adv-x="606" 
d="M585 124q3 -15 3 -28q0 -87 -107 -87q-34 0 -66.5 18.5t-56 43.5t-52.5 72.5t-46 82l-46 96.5l-13 -7l-34 -13q-2 -53 -6 -126.5t-5 -87.5q-4 -84 -57 -84q-31 0 -50 12q-3 10 -7 238.5t-4 375.5q0 50 23.5 80t68.5 30q22 0 43 -12q2 -10 2 -30.5t-1 -68.5t-1 -91v-25
q0 -41 -2 -119q46 27 91 67t88 107.5t51 137.5q34 18 71 18q31 0 46.5 -17t15.5 -56q0 -64 -53.5 -130.5t-177.5 -145.5q45 -83 90 -135q80 -95 192 -116z" />
    <glyph glyph-name="uni041B" unicode="&#x41b;" 
d="M17 105q40 9 70 29q27 22 55.5 88.5t70.5 181t81 196.5q36 76 68.5 108t84.5 32q26 0 41.5 -6.5t43.5 -26.5q-13 -109 -13 -226q0 -351 112 -399q-6 -34 -26.5 -57.5t-52.5 -23.5q-148 0 -148 308q0 98 13 302q-7 -1 -25 -47.5l-52 -141l-55 -149.5q-8 -20 -23 -62.5
t-23.5 -64.5t-24.5 -53.5t-31 -47.5t-38 -28t-50 -12q-38 0 -59.5 21.5t-21.5 52.5q0 14 3 26z" />
    <glyph glyph-name="uni041C" unicode="&#x41c;" horiz-adv-x="778" 
d="M112 1q57 0 78 77.5t21 210.5q0 51 -5 218q0 26 5 26q2 0 5 -1l2 -2q7 0 24 -54.5l38.5 -126t34.5 -98.5q26 -52 83 -52q30 0 53 17q7 5 16.5 20t23.5 43.5l23 48l28.5 62t25.5 56.5q5 10 9 19.5l6.5 15.5l4.5 11t3.5 8l2.5 5t2 2.5t3 0.5q5 0 5 -16q0 -61 -3.5 -162
t-3.5 -168q0 -87 15.5 -123t64.5 -36q22 0 41 9.5t26 25.5q-14 30 -18 80.5t-4 162.5q0 271 -31 335q-27 57 -65 57q-23 0 -48 -20t-46 -51.5t-41.5 -70t-36 -76.5l-27.5 -70l-19 -51l-6 -20q-42 124 -80 253q-31 107 -61.5 142t-65.5 35q-45 0 -62 -29q-53 -87 -53 -295
q0 -100 -11 -225.5t-36 -166.5q9 -11 33.5 -19t45.5 -8z" />
    <glyph glyph-name="uni041D" unicode="&#x41d;" horiz-adv-x="645" 
d="M587 516v-25q0 -384 -2 -435q-3 -74 -59 -74q-48 0 -67 12q-4 17 -8 324q-78 -6 -141 -6q-74 0 -104 1q0 -157 -4 -257q-2 -35 -18 -54.5t-45 -19.5q-42 0 -61 12q-3 10 -7 246t-4 384q0 50 26 80t71 30q22 0 43 -12q2 -10 2 -34.5t-1 -76.5t-1 -95v-25v-94q17 -1 57 -1
q134 0 186 1q-2 184 -2 244q0 50 26.5 80t73.5 30q17 0 38 -12q2 -10 2.5 -37.5t-0.5 -87t-1 -98.5zM520 401z" />
    <glyph glyph-name="uni041E" unicode="&#x41e;" 
d="M265 746q25 0 27 -26q-8 -7 -17.5 -16.5t-29 -39t-34.5 -64t-26.5 -92.5t-11.5 -123q0 -147 46 -231.5t98 -84.5q112 10 148 216q9 52 9 120q0 107 -33 161.5t-71 54.5q-50 0 -76 -54q-15 6 -29 20.5t-14 34.5q0 41 41.5 63.5t82.5 22.5q62 0 110 -29t75.5 -77.5
t41.5 -105t14 -117.5q0 -63 -19 -128.5t-54 -123t-94 -94.5t-131 -37q-64 0 -115.5 23t-83.5 60.5t-53.5 88.5t-30.5 103.5t-9 109.5q0 71 19 133t47.5 102.5t62 70.5t62 44t48.5 15z" />
    <glyph glyph-name="uni041F" unicode="&#x41f;" horiz-adv-x="612" 
d="M607 700q-1 -34 -23 -56t-82 -35l14 -599q-4 -10 -21.5 -17.5t-34.5 -7.5q-66 0 -76 61q-3 30 0 250t6 297q-81 -7 -179 -9l7 -574q-4 -10 -20.5 -17.5t-33.5 -7.5q-28 0 -46 12t-23 49q-2 30 1 244t6 297q-62 9 -75 33q-9 4 -9 27q0 33 29 34q201 5 321 28
q152 28 221 55q18 -28 18 -64z" />
    <glyph glyph-name="uni0420" unicode="&#x420;" horiz-adv-x="669" 
d="M326 726q87 0 160.5 -25t124 -82.5t50.5 -138.5q0 -27 -9 -57.5t-32.5 -66t-59 -63.5t-95 -46.5t-133.5 -18.5q-19 0 -43 2q-11 -191 -37 -252q-30 -12 -52 -12q-38 0 -41 43v8q0 10 -0.5 98t-0.5 160q0 205 -12 334q-50 -19 -75 -39q-16 -13 -33 -30q-31 5 -31 35
q0 19 25 41q41 41 104 70q-1 8 -2.5 17.5t-3.5 20.5t-3 18q41 31 83 31q12 0 23 -4q20 -9 33 -48q20 3 60 5zM308 299q90 0 142.5 44.5t52.5 129.5q0 84 -46 128t-133 44q-12 0 -42 -2q12 -86 12 -245q0 -25 -2 -99h16z" />
    <glyph glyph-name="uni0421" unicode="&#x421;" horiz-adv-x="619" 
d="M558 591q-23 -19 -65 -19q-31 0 -47 28l-6 12q-5 13 -11 23t-19 19t-30 9q-54 0 -93 -36t-56.5 -90.5t-25 -100t-7.5 -82.5q0 -126 51 -199.5t119 -73.5q23 0 46.5 6.5t40 14.5t35.5 22.5t28 22t23 22l15 15.5q34 -11 34 -44q0 -28 -23 -57q-80 -100 -223 -100
q-76 0 -137 31t-97.5 81.5t-56 111t-19.5 124.5q0 69 20 137.5t58.5 127t101.5 95t141 36.5q52 0 92 -14t60 -34t32.5 -40t15.5 -34z" />
    <glyph glyph-name="uni0422" unicode="&#x422;" horiz-adv-x="668" 
d="M653 777q21 -29 21 -69q0 -39 -28 -65t-104 -40q-55 -10 -133 -16l7 -577q-4 -10 -21.5 -17.5t-34.5 -7.5q-78 0 -87 61q-2 29 3 233.5t9 300.5q-76 -2 -110 -2q-58 0 -99 11t-51 29q-10 9 -10 34q0 35 31 36q224 5 360 30q175 31 247 59z" />
    <glyph glyph-name="uni0423" unicode="&#x423;" horiz-adv-x="519" 
d="M487 723q12 -27 12 -116q0 -54 -1.5 -98t-9 -111.5t-20 -119.5t-37 -110t-58.5 -96t-86 -63t-117 -25q-37 0 -62 14t-25 41q0 15 9 36q54 0 92 4q126 11 164 217q-64 -49 -125 -49q-42 0 -74 13.5t-51 35t-30.5 54t-15.5 65.5t-4 75q0 16 0.5 44.5t0.5 42.5q0 81 -15 136
q14 20 70 22q88 0 88 -95q0 -26 -6 -87t-6 -91q0 -135 78 -135q32 0 60 21.5t41 44.5q2 40 2 61q0 32 -0.5 82.5t-0.5 68.5q0 62 18 95t68 33q18 0 41 -10zM365 408v-1v1z" />
    <glyph glyph-name="uni0424" unicode="&#x424;" horiz-adv-x="1065" 
d="M793 657q47 0 91.5 -18.5t81 -53.5t59 -91.5t22.5 -126.5q0 -69 -26.5 -125t-67.5 -88.5t-86 -50t-87 -17.5q-53 0 -95.5 21.5t-42.5 59.5q0 22 17.5 43t39.5 33q11 -11 24.5 -26t20.5 -22t18.5 -12.5t27.5 -5.5q43 0 73 54t30 154q0 39 -12 82t-41.5 78.5t-68.5 35.5
q-58 0 -99.5 -45.5t-59 -107.5t-16.5 -128q7 -102 7 -161q0 -27 -1.5 -47.5t-7.5 -45t-16 -40t-29.5 -26.5t-45.5 -11q-16 0 -37 12q9 85 9 172v46q-60 -113 -207 -113q-100 0 -177 77t-77 213q0 69 26.5 125t67.5 88.5t86 50t87 17.5q53 0 95.5 -21.5t42.5 -59.5
q0 -22 -16 -42t-38 -32l-25 25.5t-21.5 21.5t-18.5 11t-28 5q-45 0 -78 -51t-33 -153q0 -74 35 -138t93 -64q61 0 102 41.5t57 97t18 121.5q-13 225 -1 270q8 34 24 48.5t45 14.5q36 0 55 -12q1 -2 -2 -24.5t-6.5 -64t-2.5 -81.5q0 -12 2 -40q57 127 213 127z" />
    <glyph glyph-name="uni0425" unicode="&#x425;" horiz-adv-x="724" 
d="M707 658q-5 -5 -56 -40.5t-125.5 -97t-144.5 -134.5q57 -78 119 -141.5t112 -104.5t58 -50q19 -19 19 -39q0 -12 -10 -25.5t-26 -19.5q-201 73 -368 269q-94 -118 -168 -260q-13 -23 -21 -39q-10 -2 -17 -2q-24 0 -42 12t-18 33q0 10 5 23q6 17 19 46.5t62.5 114.5
t109.5 161q-59 84 -94 160t-35 110v5q3 29 15.5 49.5t28 30t30.5 15t25 6.5h10q52 -140 123 -258q76 80 147.5 136.5t108 76.5t55.5 23h4q27 0 56.5 -10t29.5 -28q0 -10 -12 -22z" />
    <glyph glyph-name="uni0426" unicode="&#x426;" horiz-adv-x="698" 
d="M268 -11q-51 0 -88 12.5t-61.5 40.5t-39.5 60.5t-22 84t-9.5 98t-2.5 115.5l-1 296q6 9 41 9q34 0 62.5 -21.5t28.5 -66.5q0 -37 1 -114.5t1 -118.5q0 -61 3 -107t12.5 -99.5t31.5 -83t55 -29.5q30 0 52 28t33.5 76.5t16.5 102.5t5 117l-2 292q14 9 50 9q33 0 59 -21.5
t26 -66.5q0 -32 -2.5 -109t-2.5 -119v-25.5v-28v-25.5t0.5 -27.5l1.5 -25t2.5 -26.5t3 -24t4.5 -26l6 -23q13 -52 71 -52q47 0 69 -19q16 -12 16 -56q0 -19 -6 -72t-2 -85q-20 -5 -56 -5q-26 0 -46.5 17t-20.5 48q0 19 5 39t11 36t7 20q-16 -2 -24 -2q-44 0 -74 24.5
t-38 76.5q-20 -52 -70.5 -88t-106.5 -36z" />
    <glyph glyph-name="uni0427" unicode="&#x427;" horiz-adv-x="541" 
d="M479 324q0 -194 37 -305q-31 -30 -82 -30t-66.5 50.5t-15.5 169.5v82q-24 -17 -64.5 -31.5t-71.5 -14.5q-89 0 -138.5 46.5t-49.5 128.5q0 48 8.5 124.5t8.5 107.5q0 45 -6 85q14 16 56 16q47 0 73 -21.5t26 -59.5q0 -31 -16 -114t-16 -120q0 -58 16.5 -86t63.5 -28
q34 0 64 17t47 36q2 184 18 275q8 41 33 62.5t56 21.5q9 0 17 -2t18.5 -7.5l12.5 -6.5q-29 -208 -29 -396z" />
    <glyph glyph-name="uni0428" unicode="&#x428;" horiz-adv-x="994" 
d="M415 400q0 -25 -1 -51t-4 -69.5t-10.5 -80t-19 -71.5t-30.5 -55t-44 -20q-67 0 -87 86.5t-20 318.5q0 44 1.5 100.5t1.5 63.5q0 45 -30 66.5t-64 21.5q-16 0 -27 -2t-14 -4l-3 -3v-301q0 -52 2.5 -93t9.5 -94t23 -92t40 -74t62.5 -53.5t88.5 -18.5q63 0 113.5 36.5
t78.5 113.5q19 -67 64.5 -107.5t108.5 -40.5q52 0 94 39.5t65 88.5q10 -34 19.5 -56t29.5 -42t46 -20q36 0 68 42q-92 97 -92 345q0 42 2.5 119t2.5 109q0 45 -26 66.5t-59 21.5q-16 0 -28.5 -2t-16.5 -4l-5 -3l2 -281q-1 -55 -3 -97t-8 -90.5t-16.5 -80t-29 -52.5
t-43.5 -21q-20 0 -36 10.5t-27 33t-19.5 45t-13 58.5l-7.5 61t-4.5 65t-1.5 58.5v51.5v14q0 30 -1 82.5t-1 78.5q0 45 -28.5 66.5t-62.5 21.5q-10 0 -17.5 -1t-11.5 -2.5t-7 -2.5t-3 -2l-1 -1v-296z" />
    <glyph glyph-name="uni0429" unicode="&#x429;" horiz-adv-x="1066" 
d="M951 14q-16 -2 -24 -2q-44 0 -74 24.5t-38 76.5q-21 -57 -63.5 -96.5t-96.5 -39.5q-63 0 -108.5 40.5t-64.5 107.5q-28 -77 -78.5 -113.5t-113.5 -36.5q-50 0 -88.5 18.5t-62.5 53.5t-40 74t-23 92t-9.5 94t-2.5 93v301q8 9 44 9q34 0 64 -21.5t30 -66.5q0 -7 -1.5 -63.5
t-1.5 -100.5q0 -232 20 -318.5t87 -86.5q29 0 51 30.5t32.5 70.5t17 95t7.5 87t1 64v296q5 9 40 9q34 0 62.5 -21.5t28.5 -66.5q0 -26 1 -78.5t1 -82.5q0 -204 21 -290q27 -107 88 -107q25 0 43.5 21t29 52.5t16.5 80t8 90.5t3 97l-2 281q14 9 50 9q33 0 59 -21.5t26 -66.5
q0 -32 -2.5 -109t-2.5 -119v-25.5v-27.5v-25.5t0.5 -27.5l1.5 -24.5t2.5 -26.5t3 -24t4.5 -26l6 -23q14 -53 71 -53q47 0 69 -19q16 -12 16 -56q0 -19 -6 -72t-2 -85q-20 -5 -56 -5q-26 0 -46.5 17t-20.5 48q0 19 5 39t11 36t7 20z" />
    <glyph glyph-name="uni042A" unicode="&#x42a;" horiz-adv-x="776" 
d="M478 463q124 0 191 -69t67 -165q0 -102 -73 -176t-207 -74q-23 0 -51 4.5t-56 20.5t-28 40q0 30 25 53q57 -41 108 -41q59 0 107 54.5t48 126.5q0 63 -50.5 106t-113.5 43q-97 0 -163 -39q0 -175 -11 -258q-7 -55 -16 -67q-12 -18 -42 -18q-28 0 -46 25q0 7 1 97.5t2 210
t1 178.5v111q-46 -13 -76 -13q-45 0 -67 18.5t-22 46.5q0 30 22 54q41 -24 104 -24q6 0 90 9q12 -1 20.5 -7.5t13 -14t8 -22t4.5 -23l3 -25.5q9 -99 10 -201q103 39 197 39z" />
    <glyph glyph-name="uni042B" unicode="&#x42b;" horiz-adv-x="860" 
d="M359 463q124 0 191 -69t67 -165q0 -102 -73 -176t-207 -74q-23 0 -51 4.5t-56 20.5t-28 40q0 30 25 53q57 -41 108 -41q59 0 107 54.5t48 126.5q0 63 -50.5 106t-113.5 43q-97 0 -163 -39q0 -175 -11 -258q-7 -55 -16 -67q-12 -18 -42 -18q-28 0 -46 25q0 4 1 37t2 98
t1 129q0 231 -14 419q15 5 43 5q38 0 52.5 -22.5t18.5 -69.5q9 -99 10 -201q103 39 197 39zM780 625q11 -137 11 -264q0 -185 -11 -272q-4 -30 -8 -45t-17.5 -27.5t-38.5 -12.5q-28 0 -46 25q0 4 1 37t2 98t1 129q0 231 -14 419q15 5 43 5q39 0 56 -23.5t21 -68.5z" />
    <glyph glyph-name="uni042C" unicode="&#x42c;" horiz-adv-x="646" 
d="M359 463q124 0 191 -69t67 -165q0 -102 -73 -176t-207 -74q-23 0 -51 4.5t-56 20.5t-28 40q0 30 25 53q57 -41 108 -41q59 0 107 54.5t48 126.5q0 63 -50.5 106t-113.5 43q-97 0 -163 -39q0 -175 -11 -258q-7 -55 -16 -67q-12 -18 -42 -18q-28 0 -46 25q0 4 1 37t2 98
t1 129q0 231 -14 419q15 5 43 5q38 0 52.5 -22.5t18.5 -69.5q9 -99 10 -201q103 39 197 39z" />
    <glyph glyph-name="uni042D" unicode="&#x42d;" horiz-adv-x="597" 
d="M257 727q78 0 141 -30.5t101.5 -82t58.5 -114.5t20 -132q0 -64 -19.5 -130t-56 -124t-98 -94.5t-136.5 -36.5q-140 0 -209 86q-23 29 -23 57q0 33 34 44l14 -14.5t20 -19.5t25 -19.5t32 -19.5t37.5 -12.5t45.5 -5.5q63 0 114.5 71.5t64.5 180.5q-128 -21 -190 -21
q-109 0 -109 68q0 29 40 58q58 -23 156 -23q66 0 105 2q-2 30 -8 59.5t-19.5 65t-33.5 61.5t-52.5 44t-72.5 18q-13 0 -25 -5.5t-20.5 -14.5t-13.5 -17t-10 -17l-4 -9q-16 -28 -47 -28q-42 0 -65 19q1 6 3 15t15.5 32.5t33 41.5t59.5 32.5t92 14.5z" />
    <glyph glyph-name="uni042E" unicode="&#x42e;" horiz-adv-x="934" 
d="M649 708q67 0 120 -31t84.5 -81.5t47.5 -109t16 -119.5q0 -67 -17 -130.5t-50 -118.5t-89.5 -88.5t-128.5 -33.5q-87 0 -146.5 45t-86 111t-33.5 152q-53 0 -84 -2q-2 -149 -11 -221q-7 -55 -16 -67q-12 -18 -42 -18q-28 0 -46 25q0 7 1 96.5t2 208t1 177.5v111
q-46 -13 -76 -13q-45 0 -67 18.5t-22 46.5q0 30 22 54q41 -24 104 -24q6 0 90 9q12 -1 20.5 -7.5t13 -14t8 -22t4.5 -23l3 -25.5q10 -125 11 -224q27 1 83 1q4 84 32.5 148.5t71 100t88.5 52.5t92 17zM643 74q60 0 103.5 73.5t42.5 213.5q-1 131 -42 196.5t-97 65.5
q-41 0 -71.5 -26t-46.5 -67.5t-24 -85t-8 -87.5q0 -137 40.5 -210t102.5 -73z" />
    <glyph glyph-name="uni042F" unicode="&#x42f;" horiz-adv-x="562" 
d="M507 270q-1 -60 -0.5 -133t0.5 -87l-1 -17q-1 -46 -49 -46l-34 6q-35 106 -41 311q-33 -17 -67.5 -43t-71.5 -63t-64.5 -87t-35.5 -102q-33 -17 -71 -15q-59 2 -56 74q3 65 71 137.5t183 123.5q-2 0 -4 0.5t-4 0.5q-66 7 -112 29t-66.5 53t-28.5 58t-8 57q0 86 85.5 147
t215.5 61q39 0 75 -6q9 13 21 18q18 5 31 5q20 0 40 -7t30 -13l10 -7q-42 -194 -48 -455zM181 524q0 -67 48.5 -103t121.5 -36q19 0 29 1q0 91 1 125q4 93 17 155h-18q-37 0 -63 -5q-60 -11 -98 -48.5t-38 -88.5z" />
    <glyph glyph-name="uni0430" unicode="&#x430;" horiz-adv-x="463" 
d="M401 221q0 -33 16.5 -81.5t35.5 -67.5q-18 -15 -49 -15q-42 0 -63.5 34t-26.5 75q-20 -56 -71 -94t-100 -38q-55 0 -91.5 40t-36.5 102q0 106 71.5 189t172.5 83q53 0 97 -33t53 -69q-8 -36 -8 -125zM165 137q38 0 80.5 80.5t52.5 140.5q-10 28 -33 28q-38 0 -80 -75.5
t-42 -129.5q0 -17 6 -30.5t16 -13.5z" />
    <glyph glyph-name="uni0431" unicode="&#x431;" horiz-adv-x="406" 
d="M356 373q28 -51 28 -133q0 -88 -50 -156t-143 -71q-81 0 -127 55.5t-46 133.5q0 88 43 150t111 85q-9 6 -33.5 20.5t-35.5 23t-27 22.5t-22.5 29t-6.5 32q0 55 52.5 97t114.5 59.5t112 17.5q24 0 36.5 -12t12.5 -30q0 -16 -9 -35t-24 -30q-54 5 -122 -18.5t-68 -54.5
q0 -14 26.5 -35.5t60 -41.5t67 -46.5t43.5 -48.5q1 -3 3.5 -7.5t3.5 -5.5zM201 86q28 0 43.5 43t15.5 102q0 56 -13 98t-35 42q-27 0 -44 -49.5t-17 -101.5q0 -53 13 -93.5t37 -40.5z" />
    <glyph glyph-name="uni0432" unicode="&#x432;" horiz-adv-x="433" 
d="M283 405q68 0 102 -46.5t34 -103.5q0 -83 -60 -157.5t-161 -74.5q-43 0 -74 5q-20 0 -37.5 7t-25.5 14l-8 7q-9 35 -16.5 120.5t-7.5 166.5q0 129 12 191q19 100 66 147t100 47q54 0 86.5 -35t32.5 -88q0 -103 -97 -210q28 10 54 10zM161 584q-6 -17 -10 -45t-5 -46.5
t-2 -56.5t-1 -44q40 30 66.5 91.5t26.5 128.5q0 39 -22 39q-13 0 -27.5 -18.5t-25.5 -48.5zM186 94q45 0 75 43t30 107q0 92 -62 92q-49 0 -87 -57q1 -86 10 -172q19 -13 34 -13z" />
    <glyph glyph-name="uni0433" unicode="&#x433;" horiz-adv-x="355" 
d="M319 163q23 -17 23 -42q0 -36 -31 -62t-63.5 -34.5t-57.5 -8.5q-69 0 -105 31.5t-36 73.5q0 45 32 92t63.5 82t31.5 51q0 17 -20 17q-24 0 -57.5 -26t-53.5 -26q-26 0 -33 31q47 67 86.5 94t96.5 27q47 0 78.5 -26t31.5 -73q0 -35 -18.5 -71t-41.5 -59.5t-41.5 -51.5
t-18.5 -49q0 -16 9 -19.5t31 -3.5q14 0 42 14.5t52 38.5z" />
    <glyph glyph-name="uni0434" unicode="&#x434;" horiz-adv-x="400" 
d="M297 397q70 0 70 -236q0 -63 -14 -135t-41 -139.5t-73 -112t-103 -44.5q-51 0 -75 30.5t-24 80.5q0 83 56.5 170.5t148.5 161.5q0 27 -3 46q-57 -75 -123 -75q-46 0 -70.5 32.5t-24.5 87.5q0 89 72.5 160.5t159.5 71.5q28 0 51.5 -10t23.5 -29q0 -22 -60 -43
q-10 13 -23 13q-48 0 -79 -56t-31 -110q0 -37 17 -37q29 0 52.5 45.5t12.5 87.5q61 40 80 40zM131 -221q36 0 63.5 95t41.5 206q-126 -129 -126 -257q0 -44 21 -44z" />
    <glyph glyph-name="uni0435" unicode="&#x435;" horiz-adv-x="369" 
d="M325 162q24 -10 24 -50q0 -39 -41 -65t-92 -26q-33 0 -66.5 12.5t-64 37t-49.5 67t-19 96.5q0 90 50 157t130 67q56 0 91 -31t35 -87q0 -109 -155 -189q22 -43 63 -43q11 0 21.5 3t18.5 7t17.5 11t14 11t13 12.5zM203 378q-21 0 -39 -29.5t-18 -84.5q0 -28 3 -51
q46 31 72 61.5t26 69.5q0 34 -44 34z" />
    <glyph glyph-name="uni0436" unicode="&#x436;" horiz-adv-x="585" 
d="M531 260q0 -132 33 -209q-11 -32 -60 -32q-74 0 -84 180q-7 0 -71 -2q-2 -94 -2 -154q-29 -19 -53 -19q-40 0 -52 25t-12 95q0 30 1 49q-13 0 -36.5 -0.5t-36.5 -1.5q-12 -172 -84 -172q-48 0 -59 32q33 77 33 209q0 85 -29 182q32 6 47 6q34 0 49.5 -14t27.5 -52
q15 -51 17 -115q22 1 72 1q2 70 2 102q0 39 -1 65q34 6 48 6q71 0 71 -76q0 -16 -0.5 -48t-0.5 -49q13 0 35.5 -0.5t31.5 -0.5q3 64 17 115q12 38 27.5 52t49.5 14q16 0 48 -6q-29 -97 -29 -182z" />
    <glyph glyph-name="uni0437" unicode="&#x437;" horiz-adv-x="397" 
d="M226 257q22 -4 46.5 -17.5t48 -35.5t39 -56.5t16.5 -74.5q0 -78 -46.5 -155t-113 -122.5t-127.5 -45.5q-36 0 -57.5 20t-21.5 61q0 57 60.5 143t161.5 166q-28 49 -130 69q-10 16 -7.5 36t17.5 30q107 71 107 99q0 12 -12 12t-48 -3t-56 -3q-87 0 -87 49q0 26 32 77
q22 -21 70 -37t93 -16q53 0 84.5 -18.5t31.5 -53.5q0 -28 -27.5 -62.5t-73.5 -61.5zM94 -182q18 0 54 36t68 96.5t32 115.5v4q-74 -64 -121 -128.5t-48 -104.5q0 -19 15 -19z" />
    <glyph glyph-name="uni0438" unicode="&#x438;" horiz-adv-x="466" 
d="M403 182q0 -43 11.5 -65.5t39.5 -38.5q-3 -21 -18 -37.5t-42 -16.5q-34 0 -67.5 24.5t-44.5 85.5q-77 -110 -160 -110q-95 0 -95 125q0 13 1.5 73t1.5 100q0 59 -8 100q50 8 74 8q37 0 50.5 -18t13.5 -58q0 -14 -3 -77t-3 -94q0 -58 31 -58q33 0 95 96q8 112 8 123
q0 50 -8 77q30 4 43 4q45 0 66.5 -23t21.5 -86q0 -10 -4 -59t-4 -75z" />
    <glyph glyph-name="uni0439" unicode="&#x439;" horiz-adv-x="473" 
d="M220 472q-29 0 -58.5 7t-56.5 31.5t-27 62.5q0 33 34 33q15 0 35 -9q15 -7 30 -31t41 -24q23 0 37 9t18.5 20.5t17.5 20.5t34 9q16 0 30.5 -9t14.5 -25q0 -34 -27 -56.5t-59 -30.5t-64 -8zM406 193q0 -43 11.5 -65.5t39.5 -38.5q-3 -21 -18 -37.5t-42 -16.5
q-34 0 -67.5 24.5t-44.5 85.5q-77 -110 -160 -110q-95 0 -95 125q0 12 1.5 73t1.5 100q0 59 -8 100q50 8 74 8q37 0 50.5 -18t13.5 -58q0 -14 -3 -77t-3 -94q0 -58 31 -58q33 0 95 96q8 112 8 123q0 50 -8 77q30 4 43 4q45 0 66.5 -23t21.5 -86q0 -10 -4 -59t-4 -75z" />
    <glyph glyph-name="uni043A" unicode="&#x43a;" horiz-adv-x="444" 
d="M423 92q4 -9 4 -32t-20.5 -38.5t-49.5 -15.5q-34 0 -61 13t-49.5 43t-36.5 54.5t-35 70.5l-28 -16q-2 -31 -3 -70q-5 -95 -60 -95q-28 0 -55 19q20 105 20 191q0 116 -26 226q51 29 80 29q57 0 57 -99q0 -39 -7 -118q110 85 123 196q24 13 57 13q54 0 54 -53
q0 -80 -131 -172q21 -41 56 -84q24 -27 49 -41t62 -21z" />
    <glyph glyph-name="uni043B" unicode="&#x43b;" horiz-adv-x="450" 
d="M17 84q14 3 42 17q16 14 32.5 48t42.5 99.5t48 112.5q20 42 51.5 64.5t64.5 22.5q45 0 88 -21q-9 -72 -9 -138q0 -173 67 -244q-3 -18 -24.5 -31t-45.5 -13q-33 0 -55.5 20t-32 52t-13 59t-3.5 54q0 15 1.5 50t1.5 63q0 32 -7 33q-4 0 -11.5 -20t-23 -66t-29.5 -82
q-3 -7 -11 -28.5l-11 -29.5t-11 -26.5t-13.5 -26l-15 -20t-18 -18t-20.5 -10t-25 -4.5q-62 0 -62 59q0 8 2 24z" />
    <glyph glyph-name="uni043C" unicode="&#x43c;" horiz-adv-x="605" 
d="M517 6q-44 0 -73.5 52.5t-29.5 141.5q0 7 -0.5 21.5t-0.5 22.5v12q-34 -71 -64.5 -105.5t-62.5 -34.5q-28 0 -49.5 14t-32.5 34.5t-18 41t-10.5 34.5t-4.5 14q-5 0 -5 -45q0 -15 1.5 -54.5t1.5 -56.5q0 -48 -16 -73t-63 -25q-34 0 -67 11q17 54 29.5 139.5t12.5 163.5
q0 76 -9 128q13 13 47 13q79 0 96 -72q48 -191 85 -191q28 0 51.5 39t48.5 100.5t42 86.5q24 38 64 38q36 0 52 -18q-13 -77 -13 -177q0 -154 58 -199q-3 -20 -22.5 -38t-47.5 -18z" />
    <glyph glyph-name="uni043D" unicode="&#x43d;" horiz-adv-x="447" 
d="M393 190q0 -46 7.5 -70t27.5 -39q-11 -49 -61 -49q-16 0 -30.5 5.5t-31 20.5t-26 48t-9.5 80v18q-82 -2 -119 -6v-21q0 -103 17 -139q-40 -12 -73 -12q-42 0 -55.5 29.5t-13.5 98.5q0 13 3.5 75.5t3.5 103.5q0 59 -8 103q54 8 66 8q39 0 53 -19t14 -60q0 -30 -4 -100
q55 4 119 6q4 58 4 84q0 51 -8 80q30 4 45 4q46 0 67.5 -24.5t21.5 -88.5q0 -11 -5 -59.5t-5 -76.5z" />
    <glyph glyph-name="uni043E" unicode="&#x43e;" horiz-adv-x="414" 
d="M248 462q72 0 111 -54.5t39 -133.5q0 -60 -21.5 -115t-68.5 -93t-110 -39q-86 -1 -133 57t-47 132q0 57 26.5 97t72.5 40h2q6 53 41 81t88 28zM203 80q35 0 53.5 51.5t18.5 110.5q0 61 -18.5 101t-61.5 40q-28 0 -50 -35q42 -15 42 -74q0 -18 -5 -40q-39 -15 -39 -76
q0 -30 17.5 -54t42.5 -24z" />
    <glyph glyph-name="uni043F" unicode="&#x43f;" horiz-adv-x="480" 
d="M432 176q0 -77 36 -113q-6 -17 -24 -28t-38 -11q-41 0 -72 41t-31 115q0 38 2 94t2 64q0 21 -8 21q-6 0 -15 -5.5t-26 -25t-34.5 -50.5t-39.5 -89t-41 -134q-18 -9 -40 -9q-28 0 -46 10t-26 30.5t-10.5 40.5t-2.5 50q0 31 3.5 91.5t3.5 84.5q0 49 -9 82q35 32 76 32
q26 0 43 -17.5t17 -52.5q0 -9 -3 -63t-3 -87q45 81 84 124.5t58.5 51.5t42.5 8q63 0 83.5 -37.5t20.5 -105.5q0 -29 -1.5 -62.5t-1.5 -49.5z" />
    <glyph glyph-name="uni0440" unicode="&#x440;" horiz-adv-x="428" 
d="M390 412q29 -34 29 -95q0 -87 -63.5 -158t-154.5 -71q-18 0 -49 9q-2 -48 -2 -79q0 -118 19 -253q-41 -9 -66 -9q-48 0 -62.5 37.5t-9.5 142.5q13 240 13 345v20.5v20v17.5t-0.5 18t-1 16.5t-1.5 18l-2.5 17t-3.5 19l-4.5 19.5t-5.5 22q39 34 65 34q25 0 40 -21.5
t15 -62.5q0 -48 -8 -69q34 39 82 70.5t91 31.5q46 0 80 -40zM191 149q44 0 87 47t43 110q0 19 -8 39.5t-23 20.5q-40 0 -78.5 -47.5t-53.5 -162.5q17 -7 33 -7z" />
    <glyph glyph-name="uni0441" unicode="&#x441;" horiz-adv-x="375" 
d="M365 106q0 -32 -49.5 -57.5t-101.5 -25.5q-101 0 -151.5 56.5t-50.5 139.5q0 91 56.5 160.5t154.5 69.5q55 0 96.5 -28t41.5 -59q0 -16 -13 -28t-43 -25q-37 63 -73 63q-41 0 -64 -43t-23 -98q0 -54 23 -93t66 -39q51 0 96 51q35 -16 35 -44z" />
    <glyph glyph-name="uni0442" unicode="&#x442;" horiz-adv-x="715" 
d="M661 184q0 -51 8 -75.5t28 -50.5q-4 -12 -23 -20.5t-38 -8.5q-46 0 -68 36.5t-22 120.5q0 24 4.5 64t4.5 65q0 11 -6 11q-4 0 -8.5 -3t-9 -10.5l-8.5 -14.5t-9.5 -19.5t-9 -22t-10 -25.5l-10.5 -26q-25 -66 -50 -104.5t-56 -38.5q-40 0 -65 39q19 120 19 176q0 66 -10 66
q-11 0 -32.5 -47l-45 -103t-61.5 -103t-78 -47q-44 0 -74 32q0 6 3.5 41t4 42.5l2.5 38t2 41v36t-1.5 39.5t-4 34.5t-6.5 37.5t-10 34q29 27 65 27q75 0 75 -143q0 -59 -3 -109q5 11 20.5 48.5t22 51l21 43t25.5 41.5l27 28.5t34 22.5t39 6q42 0 64.5 -32.5t22.5 -86.5
q0 -23 -1 -35q31 72 66 108.5t89 36.5q37 0 59 -24.5t22 -65.5q0 -24 -4 -76.5t-4 -75.5z" />
    <glyph glyph-name="uni0443" unicode="&#x443;" horiz-adv-x="441" 
d="M359 453q43 0 58.5 -26.5t15.5 -73.5q0 -32 -12 -98t-38 -151.5t-60 -161.5t-84.5 -128.5t-104.5 -52.5q-53 0 -72.5 20t-18.5 50q0 44 15 44q3 0 16 -5t26 -5q36 0 76 45t62 87.5t23 52.5q10 28 23 76q-43 -56 -92 -56q-25 0 -47.5 23.5t-38 60.5t-24.5 66t-15 57
q-9 43 -27 84t-35 57q50 27 92 27q43 0 60 -40q8 -21 19.5 -88t26 -114.5t35.5 -47.5q14 0 34 23.5t34 61.5h1q8 58 8 111t-8 93q33 9 52 9z" />
    <glyph glyph-name="uni0444" unicode="&#x444;" horiz-adv-x="777" 
d="M604 435q70 0 109.5 -51.5t39.5 -124.5q0 -76 -44.5 -136t-117.5 -60q-46 0 -83.5 20.5t-52.5 46.5q-31 -132 -31 -242q0 -67 13 -103q-32 -28 -67 -28q-59 0 -58 96q0 23 1.5 132.5l2.5 183.5q-27 -47 -65.5 -77t-81.5 -30q-70 0 -110 55.5t-40 130.5q0 77 45 134
t124 57q39 0 70 -17.5t31 -47.5t-37 -48q-24 41 -53 41q-34 0 -53.5 -35t-19.5 -84q0 -100 65 -100q31 0 64.5 38.5t60.5 104.5q-1 270 -23 325q35 35 78 35q58 0 58 -84q0 -14 -4 -131.5t-5 -200.5q29 103 74.5 151.5t109.5 48.5zM574 132q34 0 53.5 36.5t19.5 87.5
q0 42 -14.5 70t-41.5 28q-67 0 -117 -158q16 -24 43 -44t57 -20z" />
    <glyph glyph-name="uni0445" unicode="&#x445;" horiz-adv-x="419" 
d="M245 229q77 -69 160 -113q-2 -24 -19.5 -43t-36.5 -19q-55 0 -160 85q-37 -57 -69 -87.5t-65 -30.5q-23 0 -39.5 16.5t-23.5 46.5q43 19 70 42.5t63 71.5q-95 99 -95 170q0 37 25.5 66t53.5 29q31 0 35 -18q-11 -25 -11 -50q0 -47 54 -108l33 55.5l27.5 47.5t22.5 33
t25.5 24t28.5 8q19 2 39.5 -7.5t29.5 -29.5q-63 -54 -148 -189z" />
    <glyph glyph-name="uni0446" unicode="&#x446;" horiz-adv-x="589" 
d="M468 191q38 16 71 3.5t33 -48.5q0 -38 -0.5 -61t-3 -64.5t-8.5 -69.5t-15.5 -64t-25.5 -59.5t-37.5 -45.5t-53 -32.5t-69.5 -10.5q-46 0 -73 29.5t-27 68.5q0 25 14.5 50.5t49.5 56t63 51l82 58.5q0 4 0.5 13.5t0.5 14.5q-30 -35 -67 -35q-96 0 -110 105
q-80 -106 -168 -106q-98 0 -98 121q0 12 3.5 70.5t3.5 96.5q0 55 -8 96q54 8 76 8q38 0 52.5 -18t14.5 -56q0 -13 -5 -74t-5 -91q0 -56 31 -56q38 0 103 94q1 12 4 54.5t3 62.5q0 48 -8 75q30 4 45 4q46 0 68.5 -23t22.5 -83q0 -10 -6 -61.5t-6 -77.5q0 -72 28 -72
q12 0 20 19t5 57zM349 -203q31 1 65.5 43t45.5 130q0 1 0.5 4t0.5 5l-56.5 -42.5t-40.5 -33.5t-33 -36.5t-9 -30.5q0 -14 7.5 -26.5t19.5 -12.5z" />
    <glyph glyph-name="uni0447" unicode="&#x447;" horiz-adv-x="427" 
d="M399 120q16 -13 16 -36q0 -35 -49.5 -63.5t-102.5 -28.5q-67 0 -107 37t-40 89q0 20 4 41t9.5 36.5t15 35.5t15 30t16.5 28t13 21q-104 16 -148 40.5t-44 79.5q0 39 21 57.5t52 18.5q81 0 81 -53q0 -23 -18 -52q19 -4 51 -8.5l56 -8t48.5 -9.5t38 -17t13.5 -26
q0 -25 -44.5 -101.5t-44.5 -114.5q0 -22 12.5 -33.5t33.5 -11.5q37 0 102 49z" />
    <glyph glyph-name="uni0448" unicode="&#x448;" horiz-adv-x="741" 
d="M671 190q0 -43 12.5 -66.5t42.5 -40.5q-5 -21 -20.5 -38t-43.5 -17q-33 0 -67.5 24.5t-45.5 83.5q-82 -101 -165 -101q-88 0 -97 99q-80 -99 -163 -99q-98 0 -98 121q0 12 3.5 70t3.5 97q0 55 -8 96q54 8 76 8q38 0 52.5 -18t14.5 -56q0 -13 -5 -74t-5 -91q0 -56 31 -56
q37 0 100 90q4 60 4 101q0 55 -8 96q54 8 76 8q38 0 52.5 -18t14.5 -56q0 -13 -5 -74t-5 -91q0 -56 31 -56q35 0 96 84q1 16 4.5 56.5t3.5 64.5q0 51 -8 80q30 4 45 4q46 0 68.5 -24.5t22.5 -88.5q0 -11 -5 -50.5t-5 -67.5z" />
    <glyph glyph-name="uni0449" unicode="&#x449;" horiz-adv-x="855" 
d="M725 190q37 16 70.5 3.5t33.5 -48.5q0 -37 -0.5 -60.5t-3 -64t-8.5 -68t-15.5 -62.5t-25.5 -58t-37.5 -44t-53 -31.5t-69.5 -10.5q-46 0 -73 29.5t-27 68.5q-1 56 97 130q28 22 111 78q0 9 2 27q-32 -34 -67 -34q-92 0 -108 95q-79 -96 -161 -96q-88 0 -97 99
q-80 -99 -163 -99q-98 0 -98 121q0 11 3.5 70t3.5 97q0 55 -8 96q54 8 76 8q38 0 52.5 -18t14.5 -56q0 -13 -5 -74t-5 -91q0 -56 31 -56q37 0 100 90q4 60 4 101q0 55 -8 96q54 8 76 8q38 0 52.5 -18t14.5 -56q0 -13 -5 -74t-5 -91q0 -56 31 -56q34 0 93 80q1 17 4.5 63
t3.5 68q0 48 -8 75q30 4 45 4q46 0 68.5 -23t22.5 -83q0 -10 -6 -61.5t-6 -77.5q0 -72 28 -72q12 0 20 19t5 57zM606 -196q11 0 22 3.5t25.5 15t26.5 29t22 50.5t15 76q-93 -66 -111 -85q-27 -27 -27 -50q0 -14 7.5 -26.5t19.5 -12.5z" />
    <glyph glyph-name="uni044A" unicode="&#x44a;" horiz-adv-x="487" 
d="M356 293q48 0 79.5 -33t31.5 -80q0 -74 -66 -128t-150 -54q-65 0 -103 39t-38 92q0 87 69 200q-183 6 -183 107q0 41 36.5 70t75.5 29q64 0 64 -48q0 -31 -30 -77h19q10 0 32.5 0.5t33.5 0.5q92 0 92 -50q0 -27 -30 -87q36 19 67 19zM108 496q-11 0 -20.5 -16.5
t-9.5 -36.5q0 -13 9 -19q26 49 26 66q-1 6 -5 6zM288 68q39 0 62 36.5t23 74.5q0 23 -12 36.5t-33 13.5q-41 0 -76 -38q-16 -44 -16 -69q0 -24 15 -39t37 -15z" />
    <glyph glyph-name="uni044B" unicode="&#x44b;" horiz-adv-x="612" 
d="M543 154q0 -73 54 -94q-4 -21 -19 -37.5t-42 -16.5q-53 0 -89.5 53.5t-36.5 139.5q0 32 5.5 88.5t5.5 81.5q0 51 -16 85q30 9 59 9q89 0 89 -117q0 -32 -5 -100t-5 -92zM236 312q57 0 99 -38t42 -100q0 -76 -47.5 -123.5t-120.5 -47.5q-51 0 -87.5 19t-56 51.5t-28 69.5
t-8.5 80q0 37 4 99t4 85q0 37 -9 54q9 1 21 1q69 0 93.5 -28.5t24.5 -76.5q0 -30 -5 -73q35 28 74 28zM214 62q31 0 45.5 31.5t14.5 72.5q0 85 -50 85q-34 0 -69 -40q-1 -16 -1 -47q1 -41 14.5 -71.5t45.5 -30.5z" />
    <glyph glyph-name="uni044C" unicode="&#x44c;" horiz-adv-x="386" 
d="M227 311q57 0 99 -38t42 -100q0 -76 -47.5 -123.5t-120.5 -47.5q-51 0 -87.5 19t-56 51.5t-28 69.5t-8.5 80q0 38 4 100t4 84q0 37 -9 54q9 1 21 1q69 0 93.5 -28.5t24.5 -76.5q0 -30 -5 -73q35 28 74 28zM205 61q31 0 45.5 31.5t14.5 72.5q0 85 -50 85q-34 0 -69 -40
q-1 -16 -1 -47q1 -41 14.5 -71.5t45.5 -30.5z" />
    <glyph glyph-name="uni044D" unicode="&#x44d;" horiz-adv-x="392" 
d="M166 449q98 0 152 -67.5t54 -158.5q0 -85 -54 -148t-156 -63q-60 0 -102 26t-42 73t62 47q9 -29 31 -46t44 -17q39 0 64.5 27.5t31.5 76.5q-30 -7 -58 -7q-50 0 -63 18.5t-4 54.5q30 -4 125 4q-8 49 -32 77.5t-60 28.5q-48 0 -79 -61q-34 12 -46 23.5t-12 26.5
q0 25 39.5 55t104.5 30z" />
    <glyph glyph-name="uni044E" unicode="&#x44e;" horiz-adv-x="604" 
d="M435 448q73 0 112.5 -54.5t39.5 -132.5q0 -95 -53 -170t-143 -78q-164 0 -170 191q-52 -44 -72 -82q4 -57 12 -87q-18 -9 -56 -9q-23 0 -38.5 7.5t-24 18t-12.5 29.5t-5 34t-1 40q0 39 4 97.5t4 80.5q0 43 -10 79q35 32 72 32q26 0 43 -17t17 -52q0 -9 -5 -146
q41 41 84 61q22 65 74.5 111.5t127.5 46.5zM405 87q27 1 41.5 48.5t14.5 107.5q0 54 -12.5 91t-33.5 37q-29 0 -46 -47t-17 -108q0 -54 14 -92t39 -37z" />
    <glyph glyph-name="uni044F" unicode="&#x44f;" horiz-adv-x="427" 
d="M411 132q3 -10 3 -20q0 -29 -18 -42.5t-44 -13.5q-42 0 -66.5 31t-31.5 85q-21 -69 -66.5 -118t-98.5 -49t-71 72q104 28 172 118q-39 -23 -75 -23q-47 0 -72 34t-25 82q0 73 51 131t119 58q58 0 98 -52q11 14 35 14q33 0 55 -23q-26 -90 -26 -190q0 -53 12.5 -73
t48.5 -21zM131 295q0 -14 7.5 -23t17.5 -9q54 0 104 115q-12 37 -40 37q-33 0 -61 -37t-28 -83z" />
    <glyph glyph-name="uni0451" unicode="&#x451;" horiz-adv-x="406" 
d="M95 492q-36 0 -52 23t-16 55q0 10 2 16q10 20 27 32.5t29 14.5l12 2q79 -7 79 -67q0 -35 -21 -55.5t-60 -20.5zM293 635q78 -7 78 -67q0 -36 -20.5 -56t-59.5 -20q-36 0 -52 23t-16 55q0 10 2 16q10 20 27 32.5t29 14.5zM325 162q24 -10 24 -50q0 -39 -41 -65t-92 -26
q-33 0 -66.5 12.5t-64 37t-49.5 67t-19 96.5q0 90 50 157t130 67q56 0 91 -31t35 -87q0 -109 -154 -188q21 -44 62 -44q11 0 21.5 3t18.5 7t17.5 11t14 11t13 12.5zM203 378q-20 0 -37 -29t-17 -85q0 -26 3 -49q45 32 70 61.5t25 67.5q0 34 -44 34z" />
    <glyph glyph-name="endash" unicode="&#x2013;" horiz-adv-x="665" 
d="M344 274q130 0 207 7q21 21 21 41q0 10 -4 18.5t-12.5 14t-17.5 9.5t-25 6.5t-28 4t-33 1.5h-34h-36.5h-35.5q-163 -1 -249 -8q-8 -15 -8 -31q0 -44 50 -53.5t205 -9.5z" />
    <glyph glyph-name="emdash" unicode="&#x2014;" horiz-adv-x="825" 
d="M404 267q161 0 243 8q25 21 25 42q0 11 -4.5 19.5t-15 14.5t-21 10.5t-29 7t-33 4t-38.5 2t-39.5 0.5t-43 -0.5t-41.5 -0.5q-191 -1 -293 -8q-9 -15 -9 -33q0 -46 58.5 -56t240.5 -10z" />
    <glyph glyph-name="quoteleft" unicode="&#x2018;" horiz-adv-x="323" 
d="M72 576q0 46 42.5 106.5t80.5 60.5q24 0 35 -33q-18 -19 -26 -28.5t-16 -24t-11 -29.5q50 -23 50 -75q0 -36 -23 -55.5t-57 -19.5q-33 0 -54 27.5t-21 70.5z" />
    <glyph glyph-name="quoteright" unicode="&#x2019;" horiz-adv-x="299" 
d="M230 645q0 -46 -42.5 -106.5t-80.5 -60.5q-24 0 -35 33q18 19 26 28.5t16 24t11 29.5q-50 23 -50 75q0 36 23 55.5t57 19.5q33 0 54 -27.5t21 -70.5z" />
    <glyph glyph-name="quotesinglbase" unicode="&#x201a;" horiz-adv-x="305" 
d="M229 78q0 -46 -42.5 -106.5t-80.5 -60.5q-24 0 -35 33q18 19 26 28.5t16 24t11 29.5q-50 23 -50 75q0 36 23 55.5t57 19.5q33 0 54 -27.5t21 -70.5z" />
    <glyph glyph-name="quotedblleft" unicode="&#x201c;" horiz-adv-x="519" 
d="M72 576q0 46 42.5 106.5t80.5 60.5q24 0 35 -33q-18 -19 -26 -28.5t-16 -24t-11 -29.5q50 -23 50 -75q0 -36 -23 -55.5t-57 -19.5q-33 0 -54 27.5t-21 70.5zM272 576q0 46 42.5 106.5t80.5 60.5q24 0 35 -33q-18 -19 -26 -28.5t-16 -24t-11 -29.5q50 -23 50 -75
q0 -36 -23 -55.5t-57 -19.5q-33 0 -54 27.5t-21 70.5z" />
    <glyph glyph-name="quotedblright" unicode="&#x201d;" horiz-adv-x="833" 
d="M230 645q0 -46 -42.5 -106.5t-80.5 -60.5q-24 0 -35 33q18 19 26 28.5t16 24t11 29.5q-50 23 -50 75q0 36 23 55.5t57 19.5q33 0 54 -27.5t21 -70.5zM430 645q0 -46 -42.5 -106.5t-80.5 -60.5q-24 0 -35 33q18 19 26 28.5t16 24t11 29.5q-50 23 -50 75q0 36 23 55.5
t57 19.5q33 0 54 -27.5t21 -70.5z" />
    <glyph glyph-name="quotedblbase" unicode="&#x201e;" horiz-adv-x="525" 
d="M229 78q0 -46 -42.5 -106.5t-80.5 -60.5q-24 0 -35 33q18 19 26 28.5t16 24t11 29.5q-50 23 -50 75q0 36 23 55.5t57 19.5q33 0 54 -27.5t21 -70.5zM429 78q0 -46 -42.5 -106.5t-80.5 -60.5q-24 0 -35 33q18 19 26 28.5t16 24t11 29.5q-50 23 -50 75q0 36 23 55.5
t57 19.5q33 0 54 -27.5t21 -70.5z" />
    <glyph glyph-name="dagger" unicode="&#x2020;" horiz-adv-x="539" 
d="M328 524q45 0 70 -0.5t55.5 -5t44.5 -16.5t14 -31t-21 -39q-71 -6 -166 -7q-2 -114 -2 -200v-206v-46q-32 -22 -66 -22q-31 0 -43 17.5t-12 54.5l1 59q1 58 2 157.5t2 185.5q-103 1 -142.5 12.5t-39.5 48.5q0 15 8 30q70 6 175 7q1 52 1 139q0 21 0.5 51t0.5 37v46
q31 14 57 14q31 0 47 -19.5t17 -44.5v-49q0 -83 -3 -173z" />
    <glyph glyph-name="daggerdbl" unicode="&#x2021;" horiz-adv-x="561" 
d="M337 524q44 0 69 -1t54.5 -5.5t43 -16t13.5 -30.5t-21 -39q-71 -6 -162 -7q-1 -22 -1.5 -70t-0.5 -73q76 1 116.5 -9t40.5 -44q0 -19 -19 -39q-62 -6 -138 -7v-60l1 -38q0 -25 -1 -39v-27v-46q-19 -14 -44 -19q-7 -3 -17 -3h-2h-3q-31 0 -43 17.5t-12 54.5v8q-1 9 -1 21
v4q0 52 1 127q-94 1 -129.5 12.5t-35.5 48.5q0 15 7 30q65 6 158 7q1 46 1 144q-103 1 -142.5 12.5t-39.5 48.5q0 15 8 30q70 6 175 7q4 186 6 216v11v46q31 14 57 14q31 0 47 -19.5t17 -44.5v-49q0 -83 -3 -173z" />
    <glyph glyph-name="bullet" unicode="&#x2022;" horiz-adv-x="337" 
d="M171 412q48 0 73.5 -26.5t25.5 -63.5q0 -39 -26.5 -67.5t-72.5 -28.5t-73 27t-27 65q0 37 26 65.5t74 28.5z" />
    <glyph glyph-name="ellipsis" unicode="&#x2026;" horiz-adv-x="897" 
d="M150 165q39 0 61.5 -15.5t22.5 -37.5q0 -34 -28.5 -68t-66.5 -34q-31 0 -52.5 30.5t-21.5 57.5q0 33 27.5 50t57.5 17zM450 165q39 0 61.5 -15.5t22.5 -37.5q0 -34 -28.5 -68t-66.5 -34q-31 0 -52.5 30.5t-21.5 57.5q0 33 27.5 50t57.5 17zM748 165q39 0 61.5 -15.5
t22.5 -37.5q0 -34 -28.5 -68t-66.5 -34q-31 0 -52.5 30.5t-21.5 57.5q0 33 27.5 50t57.5 17z" />
    <glyph glyph-name="perthousand" unicode="&#x2030;" horiz-adv-x="1212" 
d="M757 705q-115 -154 -290.5 -369t-261.5 -297q-33 -33 -65 -33q-47 0 -63 69l211.5 243l217 250.5t134.5 148.5q38 38 63 38q29 0 54 -50zM210 750q63 0 109 -40t46 -104q0 -66 -45.5 -105t-109.5 -39q-65 0 -110 38.5t-45 105.5q0 66 45.5 105t109.5 39zM210 542
q23 0 35.5 21.5t12.5 48.5q0 70 -46 70q-24 0 -36.5 -19.5t-12.5 -50.5q0 -29 11.5 -49.5t35.5 -20.5zM643 292q63 0 109 -40t46 -104q0 -66 -45.5 -105t-109.5 -39q-65 0 -110 38.5t-45 105.5q0 66 45.5 105t109.5 39zM1001 292q63 0 109 -40t46 -104q0 -66 -45.5 -105
t-109.5 -39q-65 0 -110 38.5t-45 105.5q0 66 45.5 105t109.5 39zM643 84q23 0 35.5 21.5t12.5 48.5q0 70 -46 70q-24 0 -36.5 -19.5t-12.5 -50.5q0 -29 11.5 -49.5t35.5 -20.5zM1001 84q23 0 35.5 21.5t12.5 48.5q0 70 -46 70q-24 0 -36.5 -19.5t-12.5 -50.5
q0 -29 11.5 -49.5t35.5 -20.5z" />
    <glyph glyph-name="guilsinglleft" unicode="&#x2039;" horiz-adv-x="423" 
d="M364 89q0 -29 -28 -46q-77 34 -192 126.5t-115 136.5t97 133t204 161q42 -13 42 -65q0 -21 -12.5 -44t-40 -48.5t-48.5 -43t-60 -46.5l-53 -40q206 -166 206 -224z" />
    <glyph glyph-name="guilsinglright" unicode="&#x203a;" horiz-adv-x="409" 
d="M39 554q0 29 28 46q77 -34 192 -126.5t115 -136.5t-97 -133t-204 -161q-42 13 -42 65q0 21 12.5 44t40 48.5t48.5 43t60 46.5l53 40q-206 166 -206 224z" />
    <glyph glyph-name="fraction" unicode="&#x2044;" horiz-adv-x="680" 
d="M680 705q-115 -154 -290.5 -369t-261.5 -297q-33 -33 -65 -33q-47 0 -63 69l211.5 243l217 250.5t134.5 148.5q38 38 63 38q29 0 54 -50z" />
    <glyph glyph-name="Euro" unicode="&#x20ac;" horiz-adv-x="710" 
d="M593 215q35 0 56 -23t21 -50q0 -75 -83 -122.5t-183 -47.5q-130 0 -208.5 83t-96.5 209q-14 0 -40.5 -0.5t-37.5 -1.5q-15 19 -3 43.5t49 27.5q3 0 27 2q0 29 3 56q-12 0 -34 -0.5t-32 -1.5q-15 19 -3 43.5t49 27.5q3 0 8 0.5t12 1t13 0.5q18 69 56 123.5t84 86t92.5 48
t88.5 16.5q59 0 101.5 -12t62.5 -30.5t28.5 -35.5t8.5 -32q0 -25 -25 -43t-64 -17q-4 18 -13 38t-34 41t-58 21q-118 0 -150 -200h6q184 0 225 -8q5 -25 -6.5 -43.5t-37.5 -20.5q-124 0 -195 -1q-2 -36 -2 -54h6q184 0 225 -8q5 -25 -6.5 -43.5t-37.5 -20.5q-116 0 -183 -1
q10 -88 47.5 -143t101.5 -55q46 0 90 36.5t72 110.5z" />
    <glyph glyph-name="trademark" unicode="&#x2122;" horiz-adv-x="584" 
d="M131 720q15 0 75 -2t67 0q0 -26 -5 -43q-4 -13 -11 -18t-21 -5q-7 0 -27.5 2.5t-30.5 3.5q-1 -27 -1 -139q0 -41 5 -61q-28 -8 -53 -8q-31 0 -31 37q0 23 2 81.5t1 89.5q-63 -5 -77 -13q-21 58 14 70q17 5 93 5zM541 581q2 -93 8 -108q-16 -8 -37 -8q-14 0 -22.5 5
t-11.5 18t-3.5 20t-0.5 27q0 44 1 75q-2 -4 -8 -13.5l-9 -14t-8.5 -12l-9 -12t-8.5 -9t-9.5 -6.5t-9.5 -2q-6 0 -11.5 2t-11 6.5t-9 8.5t-8.5 12t-7.5 13l-7.5 14.5l-7 13.5q-1 -109 7 -148q-16 -8 -39 -8q-25 0 -31.5 13.5t-6.5 44.5q0 6 -0.5 31.5t-0.5 43t1.5 41
t6.5 40.5t13 26q16 18 70 18q12 -36 44 -92q31 67 53 83q7 6 18.5 8.5t19.5 2.5t21 -0.5t16 -0.5q-3 -59 -2 -133z" />
    <glyph glyph-name="partialdiff" unicode="&#x2202;" horiz-adv-x="495" 
d="M148 693q36 0 74.5 -12.5t78.5 -42t71 -71t51 -105.5t20 -140q0 -39 -4.5 -77.5t-19.5 -84.5t-38.5 -80.5t-66 -58t-98.5 -24.5q-72 -1 -127 52t-55 142q0 103 75.5 173t195.5 74q-21 78 -63.5 122.5t-101.5 44.5q-30 0 -64 -12q-24 18 -24 42q0 29 29 43.5t67 14.5z
M220 66q42 0 72.5 65.5t30.5 152.5q0 48 -6 92q-68 -2 -114.5 -53.5t-46.5 -131.5q0 -48 18 -86.5t46 -38.5z" />
    <glyph glyph-name="product" unicode="&#x220f;" horiz-adv-x="665" 
d="M611 750q20 -10 31 -31.5t10 -44t-26 -42t-72 -24.5q10 -26 10 -87q0 -20 -5.5 -122.5t-6.5 -153.5q-3 -180 13 -237q-41 -19 -74 -19q-43 0 -58.5 48.5t-13.5 152.5q0 20 5.5 118t6.5 162q1 81 -3 138q-172 8 -176 8q-25 0 -36 -1q15 -28 13 -94q0 -20 -5.5 -122.5
t-6.5 -153.5q-3 -180 13 -237q-41 -19 -74 -19q-43 0 -58.5 48.5t-13.5 152.5q0 20 5.5 118t6.5 162q1 78 -3 132q-36 -8 -54 -13q-26 23 -33 56.5t14.5 61t69.5 28.5q86 2 211 -8t174 -8q64 3 93 9t43 22z" />
    <glyph glyph-name="minus" unicode="&#x2212;" horiz-adv-x="606" 
d="M300 325q132 0 209 7q21 20 21 39q0 10 -4 18t-13 13.5t-18 9.5t-25 6.5t-28 4t-33 1.5h-34h-37h-36q-164 -1 -251 -8q-8 -15 -8 -30q0 -42 50.5 -51.5t206.5 -9.5z" />
    <glyph glyph-name="radical" unicode="&#x221a;" horiz-adv-x="620" 
d="M218 -52q26 -72 145 -72q71 132 183 459t112 431q0 34 -29.5 45.5t-59.5 2.5q-70 -318 -258 -808l-28.5 109.5l-31 116l-26 89.5t-32.5 98.5t-32 74.5q-156 0 -230 -74q-3 -37 32 -95q20 12 68 33.5t61 21.5q23 -74 64 -223.5t62 -208.5z" />
    <glyph glyph-name="infinity" unicode="&#x221e;" horiz-adv-x="1036" 
d="M772 472q80 0 140.5 -46t60.5 -136q0 -69 -44 -118.5t-125 -49.5q-58 0 -121 23t-103 47t-101 66q-78 -53 -140.5 -82t-124.5 -29q-34 0 -54 7q-12 4 -24 11t-29.5 21.5t-28.5 41t-11 60.5q0 21 10 45t32.5 51t70 44.5t112.5 17.5q95 -4 209 -74q164 100 271 100z
M748 229q30 0 56 20.5t26 58.5q0 86 -89 83q-60 0 -166 -68q95 -69 127 -83q26 -11 46 -11zM234 226q26 0 63.5 20t104.5 64q-84 54 -133 54q-37 0 -63.5 -19.5t-26.5 -56.5q0 -27 16 -46q18 -16 39 -16z" />
    <glyph glyph-name="integral" unicode="&#x222b;" horiz-adv-x="491" 
d="M456 634q0 -36 -41 -47q-1 1 -3.5 6.5t-3.5 6.5t-3 5.5t-3.5 5.5t-4 4.5t-4.5 4.5t-5.5 3t-6.5 2.5t-7 1t-9 0.5q-83 0 -83 -281q0 -34 1 -104.5t1 -106.5q0 -45 -1 -74.5t-5 -72t-11 -70t-21 -58t-34 -48.5t-50 -30t-69 -12q-44 0 -69.5 16.5t-25.5 40.5q0 14 11 29
t31 22q1 -1 5 -8t6 -9.5t7 -8t9 -8.5t10.5 -5t13.5 -2q17 0 29 14t19 44t11.5 56t6 71.5t2 67.5t0.5 66v21v163q0 49 1 80t5 72.5t12 66.5t22.5 53t35 43.5t52 25.5t71.5 10q31 0 64.5 -15.5t33.5 -41.5z" />
    <glyph glyph-name="i.loclTRK" horiz-adv-x="205" 
d="M66 557q72 -7 72 -62q0 -33 -19 -51.5t-55 -18.5q-33 0 -48 21.5t-15 50.5q0 10 2 14q9 19 25 30.5t27 13.5zM57 370q75 -2 75 -84v-5q0 -4 -0.5 -18.5t-1 -47.5t-0.5 -84q0 -41 -5 -79q-2 -15 -4 -23.5t-9 -16.5t-19 -14q-23 -9 -38 -9q-38 1 -47 58q-5 45 -5 177v42
q2 54 5 67q11 37 49 37z" />
    </font>
</defs>
</svg>
